<?xml version="1.0" encoding="utf-8" standalone="no"?>
<!DOCTYPE svg PUBLIC "-//W3C//DTD SVG 1.1//EN"
  "http://www.w3.org/Graphics/SVG/1.1/DTD/svg11.dtd">
<svg xmlns:xlink="http://www.w3.org/1999/xlink" width="360pt" height="360pt" viewBox="0 0 360 360" xmlns="http://www.w3.org/2000/svg" version="1.1">
 <metadata>
  <rdf:RDF xmlns:dc="http://purl.org/dc/elements/1.1/" xmlns:cc="http://creativecommons.org/ns#" xmlns:rdf="http://www.w3.org/1999/02/22-rdf-syntax-ns#">
   <cc:Work>
    <dc:type rdf:resource="http://purl.org/dc/dcmitype/StillImage"/>
    <dc:date>2022-12-07T03:34:31.578438</dc:date>
    <dc:format>image/svg+xml</dc:format>
    <dc:creator>
     <cc:Agent>
      <dc:title>Matplotlib v3.6.2, https://matplotlib.org/</dc:title>
     </cc:Agent>
    </dc:creator>
   </cc:Work>
  </rdf:RDF>
 </metadata>
 <defs>
  <style type="text/css">*{stroke-linejoin: round; stroke-linecap: butt}</style>
 </defs>
 <g id="figure_1">
  <g id="patch_1">
   <path d="M 0 360 
L 360 360 
L 360 0 
L 0 0 
L 0 360 
z
" style="fill: none"/>
  </g>
  <g id="axes_1">
   <g id="patch_2">
    <path d="M 45 320.4 
L 324 320.4 
L 324 43.2 
L 45 43.2 
L 45 320.4 
z
" style="fill: none"/>
   </g>
   <g id="patch_3">
    <path d="M 50.4 320.4 
L 57.6 320.4 
L 57.6 320.4 
L 50.4 320.4 
z
" clip-path="url(#p9f5f60e80c)" style="fill: #00bfff; stroke: #0000ff; stroke-linejoin: miter"/>
   </g>
   <g id="patch_4">
    <path d="M 59.4 320.4 
L 66.6 320.4 
L 66.6 320.4 
L 59.4 320.4 
z
" clip-path="url(#p9f5f60e80c)" style="fill: #00bfff; stroke: #0000ff; stroke-linejoin: miter"/>
   </g>
   <g id="patch_5">
    <path d="M 68.4 320.4 
L 75.6 320.4 
L 75.6 320.4 
L 68.4 320.4 
z
" clip-path="url(#p9f5f60e80c)" style="fill: #00bfff; stroke: #0000ff; stroke-linejoin: miter"/>
   </g>
   <g id="patch_6">
    <path d="M 77.4 320.4 
L 84.6 320.4 
L 84.6 320.4 
L 77.4 320.4 
z
" clip-path="url(#p9f5f60e80c)" style="fill: #00bfff; stroke: #0000ff; stroke-linejoin: miter"/>
   </g>
   <g id="patch_7">
    <path d="M 86.4 320.4 
L 93.6 320.4 
L 93.6 320.4 
L 86.4 320.4 
z
" clip-path="url(#p9f5f60e80c)" style="fill: #00bfff; stroke: #0000ff; stroke-linejoin: miter"/>
   </g>
   <g id="patch_8">
    <path d="M 95.4 320.4 
L 102.6 320.4 
L 102.6 320.4 
L 95.4 320.4 
z
" clip-path="url(#p9f5f60e80c)" style="fill: #00bfff; stroke: #0000ff; stroke-linejoin: miter"/>
   </g>
   <g id="patch_9">
    <path d="M 104.4 320.4 
L 111.6 320.4 
L 111.6 320.4 
L 104.4 320.4 
z
" clip-path="url(#p9f5f60e80c)" style="fill: #00bfff; stroke: #0000ff; stroke-linejoin: miter"/>
   </g>
   <g id="patch_10">
    <path d="M 113.4 320.4 
L 120.6 320.4 
L 120.6 320.4 
L 113.4 320.4 
z
" clip-path="url(#p9f5f60e80c)" style="fill: #00bfff; stroke: #0000ff; stroke-linejoin: miter"/>
   </g>
   <g id="patch_11">
    <path d="M 122.4 320.4 
L 129.6 320.4 
L 129.6 320.4 
L 122.4 320.4 
z
" clip-path="url(#p9f5f60e80c)" style="fill: #00bfff; stroke: #0000ff; stroke-linejoin: miter"/>
   </g>
   <g id="patch_12">
    <path d="M 131.4 320.4 
L 138.6 320.4 
L 138.6 320.4 
L 131.4 320.4 
z
" clip-path="url(#p9f5f60e80c)" style="fill: #00bfff; stroke: #0000ff; stroke-linejoin: miter"/>
   </g>
   <g id="patch_13">
    <path d="M 140.4 320.4 
L 147.6 320.4 
L 147.6 320.4 
L 140.4 320.4 
z
" clip-path="url(#p9f5f60e80c)" style="fill: #00bfff; stroke: #0000ff; stroke-linejoin: miter"/>
   </g>
   <g id="patch_14">
    <path d="M 149.4 320.4 
L 156.6 320.4 
L 156.6 320.4 
L 149.4 320.4 
z
" clip-path="url(#p9f5f60e80c)" style="fill: #00bfff; stroke: #0000ff; stroke-linejoin: miter"/>
   </g>
   <g id="patch_15">
    <path d="M 158.4 320.4 
L 165.6 320.4 
L 165.6 320.4 
L 158.4 320.4 
z
" clip-path="url(#p9f5f60e80c)" style="fill: #00bfff; stroke: #0000ff; stroke-linejoin: miter"/>
   </g>
   <g id="patch_16">
    <path d="M 167.4 320.4 
L 174.6 320.4 
L 174.6 320.4 
L 167.4 320.4 
z
" clip-path="url(#p9f5f60e80c)" style="fill: #00bfff; stroke: #0000ff; stroke-linejoin: miter"/>
   </g>
   <g id="patch_17">
    <path d="M 176.4 320.4 
L 183.6 320.4 
L 183.6 320.4 
L 176.4 320.4 
z
" clip-path="url(#p9f5f60e80c)" style="fill: #00bfff; stroke: #0000ff; stroke-linejoin: miter"/>
   </g>
   <g id="patch_18">
    <path d="M 185.4 320.4 
L 192.6 320.4 
L 192.6 320.4 
L 185.4 320.4 
z
" clip-path="url(#p9f5f60e80c)" style="fill: #00bfff; stroke: #0000ff; stroke-linejoin: miter"/>
   </g>
   <g id="patch_19">
    <path d="M 194.4 320.4 
L 201.6 320.4 
L 201.6 320.4 
L 194.4 320.4 
z
" clip-path="url(#p9f5f60e80c)" style="fill: #00bfff; stroke: #0000ff; stroke-linejoin: miter"/>
   </g>
   <g id="patch_20">
    <path d="M 203.4 320.4 
L 210.6 320.4 
L 210.6 320.4 
L 203.4 320.4 
z
" clip-path="url(#p9f5f60e80c)" style="fill: #00bfff; stroke: #0000ff; stroke-linejoin: miter"/>
   </g>
   <g id="patch_21">
    <path d="M 212.4 320.4 
L 219.6 320.4 
L 219.6 320.4 
L 212.4 320.4 
z
" clip-path="url(#p9f5f60e80c)" style="fill: #00bfff; stroke: #0000ff; stroke-linejoin: miter"/>
   </g>
   <g id="patch_22">
    <path d="M 221.4 320.4 
L 228.6 320.4 
L 228.6 320.4 
L 221.4 320.4 
z
" clip-path="url(#p9f5f60e80c)" style="fill: #00bfff; stroke: #0000ff; stroke-linejoin: miter"/>
   </g>
   <g id="patch_23">
    <path d="M 230.4 320.4 
L 237.6 320.4 
L 237.6 320.4 
L 230.4 320.4 
z
" clip-path="url(#p9f5f60e80c)" style="fill: #00bfff; stroke: #0000ff; stroke-linejoin: miter"/>
   </g>
   <g id="patch_24">
    <path d="M 239.4 320.4 
L 246.6 320.4 
L 246.6 320.4 
L 239.4 320.4 
z
" clip-path="url(#p9f5f60e80c)" style="fill: #00bfff; stroke: #0000ff; stroke-linejoin: miter"/>
   </g>
   <g id="patch_25">
    <path d="M 248.4 320.4 
L 255.6 320.4 
L 255.6 320.4 
L 248.4 320.4 
z
" clip-path="url(#p9f5f60e80c)" style="fill: #00bfff; stroke: #0000ff; stroke-linejoin: miter"/>
   </g>
   <g id="patch_26">
    <path d="M 257.4 320.4 
L 264.6 320.4 
L 264.6 320.4 
L 257.4 320.4 
z
" clip-path="url(#p9f5f60e80c)" style="fill: #00bfff; stroke: #0000ff; stroke-linejoin: miter"/>
   </g>
   <g id="patch_27">
    <path d="M 266.4 320.4 
L 273.6 320.4 
L 273.6 320.4 
L 266.4 320.4 
z
" clip-path="url(#p9f5f60e80c)" style="fill: #00bfff; stroke: #0000ff; stroke-linejoin: miter"/>
   </g>
   <g id="patch_28">
    <path d="M 275.4 320.4 
L 282.6 320.4 
L 282.6 320.4 
L 275.4 320.4 
z
" clip-path="url(#p9f5f60e80c)" style="fill: #00bfff; stroke: #0000ff; stroke-linejoin: miter"/>
   </g>
   <g id="patch_29">
    <path d="M 284.4 320.4 
L 291.6 320.4 
L 291.6 320.4 
L 284.4 320.4 
z
" clip-path="url(#p9f5f60e80c)" style="fill: #00bfff; stroke: #0000ff; stroke-linejoin: miter"/>
   </g>
   <g id="patch_30">
    <path d="M 293.4 320.4 
L 300.6 320.4 
L 300.6 320.4 
L 293.4 320.4 
z
" clip-path="url(#p9f5f60e80c)" style="fill: #00bfff; stroke: #0000ff; stroke-linejoin: miter"/>
   </g>
   <g id="patch_31">
    <path d="M 302.4 320.4 
L 309.6 320.4 
L 309.6 320.4 
L 302.4 320.4 
z
" clip-path="url(#p9f5f60e80c)" style="fill: #00bfff; stroke: #0000ff; stroke-linejoin: miter"/>
   </g>
   <g id="patch_32">
    <path d="M 311.4 320.4 
L 318.6 320.4 
L 318.6 56.4 
L 311.4 56.4 
z
" clip-path="url(#p9f5f60e80c)" style="fill: #00bfff; stroke: #0000ff; stroke-linejoin: miter"/>
   </g>
   <g id="matplotlib.axis_1">
    <g id="xtick_1">
     <g id="line2d_1">
      <path d="M 45 320.4 
L 45 43.2 
" clip-path="url(#p9f5f60e80c)" style="fill: none; stroke: #b0b0b0; stroke-width: 0.8; stroke-linecap: square"/>
     </g>
     <g id="line2d_2">
      <defs>
       <path id="m8965a80d4a" d="M 0 0 
L 0 3.5 
" style="stroke: #000000; stroke-width: 0.8"/>
      </defs>
      <g>
       <use xlink:href="#m8965a80d4a" x="45" y="320.4" style="stroke: #000000; stroke-width: 0.8"/>
      </g>
     </g>
     <g id="text_1">
      <!-- 0 -->
      <g transform="translate(42.5 335.095312) scale(0.1 -0.1)">
       <defs>
        <path id="MS-Gothic-30" d="M 200 2500 
Q 200 3975 800 4575 
Q 1150 4925 1575 4925 
Q 2000 4925 2350 4575 
Q 2950 3975 2950 2500 
Q 2950 1000 2350 400 
Q 2000 50 1575 50 
Q 1150 50 800 400 
Q 200 1000 200 2500 
z
M 2375 2500 
Q 2375 3825 1900 4300 
Q 1750 4450 1575 4450 
Q 1400 4450 1250 4300 
Q 775 3800 775 2500 
Q 775 1150 1250 675 
Q 1400 525 1575 525 
Q 1750 525 1900 675 
Q 2375 1150 2375 2500 
z
" transform="scale(0.015625)"/>
       </defs>
       <use xlink:href="#MS-Gothic-30"/>
      </g>
     </g>
    </g>
    <g id="xtick_2">
     <g id="line2d_3">
      <path d="M 90 320.4 
L 90 43.2 
" clip-path="url(#p9f5f60e80c)" style="fill: none; stroke: #b0b0b0; stroke-width: 0.8; stroke-linecap: square"/>
     </g>
     <g id="line2d_4">
      <g>
       <use xlink:href="#m8965a80d4a" x="90" y="320.4" style="stroke: #000000; stroke-width: 0.8"/>
      </g>
     </g>
     <g id="text_2">
      <!-- 5 -->
      <g transform="translate(87.5 335.095312) scale(0.1 -0.1)">
       <defs>
        <path id="MS-Gothic-35" d="M 850 1425 
Q 850 925 1100 675 
Q 1250 525 1525 525 
Q 1750 525 1950 725 
Q 2250 1025 2250 1725 
Q 2250 2375 2000 2625 
Q 1850 2775 1650 2775 
Q 1200 2775 925 2250 
L 425 2250 
L 575 4925 
L 2725 4925 
L 2725 4450 
L 1050 4450 
L 950 2825 
Q 1275 3200 1775 3200 
Q 2150 3200 2425 2925 
Q 2825 2525 2825 1725 
Q 2825 875 2350 400 
Q 2000 50 1500 50 
Q 975 50 675 350 
Q 300 725 275 1425 
L 850 1425 
z
" transform="scale(0.015625)"/>
       </defs>
       <use xlink:href="#MS-Gothic-35"/>
      </g>
     </g>
    </g>
    <g id="xtick_3">
     <g id="line2d_5">
      <path d="M 135 320.4 
L 135 43.2 
" clip-path="url(#p9f5f60e80c)" style="fill: none; stroke: #b0b0b0; stroke-width: 0.8; stroke-linecap: square"/>
     </g>
     <g id="line2d_6">
      <g>
       <use xlink:href="#m8965a80d4a" x="135" y="320.4" style="stroke: #000000; stroke-width: 0.8"/>
      </g>
     </g>
     <g id="text_3">
      <!-- 10 -->
      <g transform="translate(130 335.095312) scale(0.1 -0.1)">
       <defs>
        <path id="MS-Gothic-31" d="M 1375 50 
L 1375 2000 
L 1375 3925 
L 625 3925 
L 625 4225 
Q 1500 4225 1650 4925 
L 1950 4925 
L 1950 50 
L 1375 50 
z
" transform="scale(0.015625)"/>
       </defs>
       <use xlink:href="#MS-Gothic-31"/>
       <use xlink:href="#MS-Gothic-30" x="50"/>
      </g>
     </g>
    </g>
    <g id="xtick_4">
     <g id="line2d_7">
      <path d="M 180 320.4 
L 180 43.2 
" clip-path="url(#p9f5f60e80c)" style="fill: none; stroke: #b0b0b0; stroke-width: 0.8; stroke-linecap: square"/>
     </g>
     <g id="line2d_8">
      <g>
       <use xlink:href="#m8965a80d4a" x="180" y="320.4" style="stroke: #000000; stroke-width: 0.8"/>
      </g>
     </g>
     <g id="text_4">
      <!-- 15 -->
      <g transform="translate(175 335.095312) scale(0.1 -0.1)">
       <use xlink:href="#MS-Gothic-31"/>
       <use xlink:href="#MS-Gothic-35" x="50"/>
      </g>
     </g>
    </g>
    <g id="xtick_5">
     <g id="line2d_9">
      <path d="M 225 320.4 
L 225 43.2 
" clip-path="url(#p9f5f60e80c)" style="fill: none; stroke: #b0b0b0; stroke-width: 0.8; stroke-linecap: square"/>
     </g>
     <g id="line2d_10">
      <g>
       <use xlink:href="#m8965a80d4a" x="225" y="320.4" style="stroke: #000000; stroke-width: 0.8"/>
      </g>
     </g>
     <g id="text_5">
      <!-- 20 -->
      <g transform="translate(220 335.095312) scale(0.1 -0.1)">
       <defs>
        <path id="MS-Gothic-32" d="M 2850 525 
L 2850 50 
L 300 50 
L 300 450 
Q 875 1525 1725 2500 
Q 2200 3050 2200 3650 
Q 2200 4075 1975 4300 
Q 1825 4450 1575 4450 
Q 1375 4450 1175 4250 
Q 950 4025 950 3325 
L 400 3325 
Q 425 4225 825 4625 
Q 1125 4925 1625 4925 
Q 2100 4925 2425 4600 
Q 2775 4250 2775 3625 
Q 2775 2900 2100 2125 
Q 1375 1300 900 525 
L 2850 525 
z
" transform="scale(0.015625)"/>
       </defs>
       <use xlink:href="#MS-Gothic-32"/>
       <use xlink:href="#MS-Gothic-30" x="50"/>
      </g>
     </g>
    </g>
    <g id="xtick_6">
     <g id="line2d_11">
      <path d="M 270 320.4 
L 270 43.2 
" clip-path="url(#p9f5f60e80c)" style="fill: none; stroke: #b0b0b0; stroke-width: 0.8; stroke-linecap: square"/>
     </g>
     <g id="line2d_12">
      <g>
       <use xlink:href="#m8965a80d4a" x="270" y="320.4" style="stroke: #000000; stroke-width: 0.8"/>
      </g>
     </g>
     <g id="text_6">
      <!-- 25 -->
      <g transform="translate(265 335.095312) scale(0.1 -0.1)">
       <use xlink:href="#MS-Gothic-32"/>
       <use xlink:href="#MS-Gothic-35" x="50"/>
      </g>
     </g>
    </g>
    <g id="xtick_7">
     <g id="line2d_13">
      <path d="M 315 320.4 
L 315 43.2 
" clip-path="url(#p9f5f60e80c)" style="fill: none; stroke: #b0b0b0; stroke-width: 0.8; stroke-linecap: square"/>
     </g>
     <g id="line2d_14">
      <g>
       <use xlink:href="#m8965a80d4a" x="315" y="320.4" style="stroke: #000000; stroke-width: 0.8"/>
      </g>
     </g>
     <g id="text_7">
      <!-- 30 -->
      <g transform="translate(310 335.095312) scale(0.1 -0.1)">
       <defs>
        <path id="MS-Gothic-33" d="M 850 1500 
Q 825 950 1075 700 
Q 1250 525 1550 525 
Q 1800 525 2025 750 
Q 2250 975 2250 1500 
Q 2250 1900 1975 2175 
Q 1775 2375 1375 2350 
L 1375 2775 
Q 1775 2800 1975 3000 
Q 2175 3200 2175 3600 
Q 2175 4100 1950 4325 
Q 1800 4475 1575 4475 
Q 1350 4475 1200 4325 
Q 950 4075 925 3575 
L 375 3575 
Q 400 4225 800 4625 
Q 1100 4925 1575 4925 
Q 2075 4925 2375 4625 
Q 2725 4275 2725 3700 
Q 2725 3175 2450 2900 
Q 2200 2650 1975 2575 
Q 2300 2475 2475 2300 
Q 2825 1950 2825 1450 
Q 2825 800 2425 400 
Q 2075 50 1550 50 
Q 975 50 650 375 
Q 275 750 275 1500 
L 850 1500 
z
" transform="scale(0.015625)"/>
       </defs>
       <use xlink:href="#MS-Gothic-33"/>
       <use xlink:href="#MS-Gothic-30" x="50"/>
      </g>
     </g>
    </g>
    <g id="text_8">
     <!-- 日付 -->
     <g transform="translate(168.5 352.696875) scale(0.16 -0.16)">
      <defs>
       <path id="MS-Gothic-65e5" d="M 1825 -225 
L 1250 -225 
L 1250 4600 
L 5175 4600 
L 5175 -125 
L 4600 -125 
L 4600 225 
L 1825 225 
L 1825 -225 
z
M 4600 2700 
L 4600 4125 
L 1825 4125 
L 1825 2700 
L 4600 2700 
z
M 4600 700 
L 4600 2225 
L 1825 2225 
L 1825 700 
L 4600 700 
z
" transform="scale(0.015625)"/>
       <path id="MS-Gothic-4ed8" d="M 2175 4675 
Q 2025 4050 1725 3425 
Q 1975 3375 1775 3225 
L 1775 -475 
L 1275 -475 
L 1275 2625 
Q 1000 2225 725 1950 
L 325 2400 
Q 1400 3425 1725 5025 
L 2250 4825 
Q 2350 4725 2175 4675 
z
M 4500 3575 
L 4500 5000 
L 4975 5000 
Q 5175 4975 5000 4850 
L 5000 3575 
L 6025 3575 
L 6025 3100 
L 5000 3100 
L 5000 0 
Q 5000 -400 4600 -400 
L 3850 -400 
L 3725 75 
L 4400 75 
Q 4500 75 4500 175 
L 4500 3100 
L 2250 3100 
L 2250 3575 
L 4500 3575 
z
M 3050 2450 
Q 3475 1925 3825 1275 
L 3325 950 
Q 2975 1675 2575 2150 
L 3050 2450 
z
" transform="scale(0.015625)"/>
      </defs>
      <use xlink:href="#MS-Gothic-65e5"/>
      <use xlink:href="#MS-Gothic-4ed8" x="100"/>
     </g>
    </g>
   </g>
   <g id="matplotlib.axis_2">
    <g id="ytick_1">
     <g id="line2d_15">
      <path d="M 45 320.4 
L 324 320.4 
" clip-path="url(#p9f5f60e80c)" style="fill: none; stroke: #b0b0b0; stroke-width: 0.8; stroke-linecap: square"/>
     </g>
     <g id="line2d_16">
      <defs>
       <path id="m3c40a57953" d="M 0 0 
L -3.5 0 
" style="stroke: #000000; stroke-width: 0.8"/>
      </defs>
      <g>
       <use xlink:href="#m3c40a57953" x="45" y="320.4" style="stroke: #000000; stroke-width: 0.8"/>
      </g>
     </g>
     <g id="text_9">
      <!-- 0 -->
      <g transform="translate(33 324.247656) scale(0.1 -0.1)">
       <use xlink:href="#MS-Gothic-30"/>
      </g>
     </g>
    </g>
    <g id="ytick_2">
     <g id="line2d_17">
      <path d="M 45 260.4 
L 324 260.4 
" clip-path="url(#p9f5f60e80c)" style="fill: none; stroke: #b0b0b0; stroke-width: 0.8; stroke-linecap: square"/>
     </g>
     <g id="line2d_18">
      <g>
       <use xlink:href="#m3c40a57953" x="45" y="260.4" style="stroke: #000000; stroke-width: 0.8"/>
      </g>
     </g>
     <g id="text_10">
      <!-- 50 -->
      <g transform="translate(28 264.247656) scale(0.1 -0.1)">
       <use xlink:href="#MS-Gothic-35"/>
       <use xlink:href="#MS-Gothic-30" x="50"/>
      </g>
     </g>
    </g>
    <g id="ytick_3">
     <g id="line2d_19">
      <path d="M 45 200.4 
L 324 200.4 
" clip-path="url(#p9f5f60e80c)" style="fill: none; stroke: #b0b0b0; stroke-width: 0.8; stroke-linecap: square"/>
     </g>
     <g id="line2d_20">
      <g>
       <use xlink:href="#m3c40a57953" x="45" y="200.4" style="stroke: #000000; stroke-width: 0.8"/>
      </g>
     </g>
     <g id="text_11">
      <!-- 100 -->
      <g transform="translate(23 204.247656) scale(0.1 -0.1)">
       <use xlink:href="#MS-Gothic-31"/>
       <use xlink:href="#MS-Gothic-30" x="50"/>
       <use xlink:href="#MS-Gothic-30" x="100"/>
      </g>
     </g>
    </g>
    <g id="ytick_4">
     <g id="line2d_21">
      <path d="M 45 140.4 
L 324 140.4 
" clip-path="url(#p9f5f60e80c)" style="fill: none; stroke: #b0b0b0; stroke-width: 0.8; stroke-linecap: square"/>
     </g>
     <g id="line2d_22">
      <g>
       <use xlink:href="#m3c40a57953" x="45" y="140.4" style="stroke: #000000; stroke-width: 0.8"/>
      </g>
     </g>
     <g id="text_12">
      <!-- 150 -->
      <g transform="translate(23 144.247656) scale(0.1 -0.1)">
       <use xlink:href="#MS-Gothic-31"/>
       <use xlink:href="#MS-Gothic-35" x="50"/>
       <use xlink:href="#MS-Gothic-30" x="100"/>
      </g>
     </g>
    </g>
    <g id="ytick_5">
     <g id="line2d_23">
      <path d="M 45 80.4 
L 324 80.4 
" clip-path="url(#p9f5f60e80c)" style="fill: none; stroke: #b0b0b0; stroke-width: 0.8; stroke-linecap: square"/>
     </g>
     <g id="line2d_24">
      <g>
       <use xlink:href="#m3c40a57953" x="45" y="80.4" style="stroke: #000000; stroke-width: 0.8"/>
      </g>
     </g>
     <g id="text_13">
      <!-- 200 -->
      <g transform="translate(23 84.247656) scale(0.1 -0.1)">
       <use xlink:href="#MS-Gothic-32"/>
       <use xlink:href="#MS-Gothic-30" x="50"/>
       <use xlink:href="#MS-Gothic-30" x="100"/>
      </g>
     </g>
    </g>
    <g id="text_14">
     <!-- 支出額(円) -->
     <g transform="translate(16.9375 221.8) rotate(-90) scale(0.16 -0.16)">
      <defs>
       <path id="MS-Gothic-652f" d="M 3725 875 
Q 4550 350 5975 100 
L 5775 -525 
Q 4125 -150 3275 525 
Q 2175 -175 600 -550 
L 375 25 
Q 1850 300 2850 875 
Q 2200 1600 1850 2475 
L 1075 2475 
L 1075 2950 
L 2900 2950 
L 2900 3850 
L 500 3850 
L 500 4325 
L 2900 4325 
L 2900 5125 
L 3450 5125 
Q 3700 5075 3475 4925 
L 3475 4325 
L 5900 4325 
L 5900 3850 
L 3475 3850 
L 3475 2950 
L 4625 2950 
L 4775 3100 
L 5200 2725 
L 5100 2675 
Q 4475 1525 3725 875 
z
M 2450 2475 
Q 2775 1725 3300 1225 
Q 3900 1725 4300 2475 
L 2450 2475 
z
" transform="scale(0.015625)"/>
       <path id="MS-Gothic-51fa" d="M 1425 4525 
Q 1625 4500 1450 4375 
L 1450 3025 
L 2925 3025 
L 2925 5025 
L 3400 5025 
Q 3600 5000 3425 4875 
L 3425 3025 
L 4875 3025 
L 4875 4500 
L 5350 4500 
Q 5550 4475 5375 4350 
L 5375 2325 
L 4875 2325 
L 4875 2550 
L 3425 2550 
L 3425 400 
L 5075 400 
L 5075 1925 
L 5550 1925 
Q 5750 1900 5575 1775 
L 5575 -350 
L 5075 -350 
L 5075 -75 
L 1200 -75 
L 1200 -425 
L 700 -425 
L 700 1950 
L 1175 1950 
Q 1375 1925 1200 1800 
L 1200 400 
L 2925 400 
L 2925 2550 
L 1450 2550 
L 1450 2275 
L 950 2275 
L 950 4525 
L 1425 4525 
z
" transform="scale(0.015625)"/>
       <path id="MS-Gothic-984d" d="M 850 1300 
L 425 1100 
L 250 1550 
Q 1150 1900 1625 2300 
Q 1400 2500 1200 2725 
Q 925 2425 550 2175 
L 325 2600 
Q 1175 3100 1400 3925 
L 1825 3850 
Q 2000 3825 1800 3700 
L 1675 3450 
L 2525 3450 
L 2600 3525 
L 2975 3225 
Q 3025 3125 2875 3125 
Q 2650 2750 2225 2325 
Q 2600 2025 3450 1750 
L 3250 1250 
Q 2325 1725 1950 2025 
Q 1550 1675 1100 1450 
L 2775 1450 
L 2775 -350 
L 2350 -350 
L 2350 -225 
L 1275 -225 
L 1275 -475 
L 850 -475 
L 850 1300 
z
M 3525 525 
L 3525 3850 
L 4275 3850 
L 4450 4475 
L 3425 4475 
L 3425 4950 
L 6000 4950 
L 6000 4475 
L 4950 4475 
L 4675 3850 
L 5800 3850 
L 5800 525 
L 3525 525 
z
M 6000 -575 
Q 5425 -375 4825 50 
L 5150 425 
Q 5700 75 6250 -100 
L 6000 -575 
z
M 1900 2575 
Q 2100 2775 2350 3150 
L 1550 3150 
L 1450 3000 
Q 1675 2750 1900 2575 
z
M 3000 -75 
Q 3700 75 4150 400 
L 4475 0 
Q 4600 -175 4350 -100 
Q 3900 -375 3225 -600 
L 3000 -75 
z
M 2125 4475 
L 3200 4475 
L 3200 3600 
L 2775 3600 
L 2775 4075 
L 950 4075 
L 950 3425 
L 525 3425 
L 525 4475 
L 1625 4475 
L 1625 5125 
L 2100 5125 
Q 2300 5100 2125 4975 
L 2125 4475 
z
M 3950 1500 
L 3950 925 
L 5375 925 
L 5375 1500 
L 3950 1500 
z
M 3950 2475 
L 3950 1900 
L 5375 1900 
L 5375 2475 
L 3950 2475 
z
M 3950 3450 
L 3950 2875 
L 5375 2875 
L 5375 3450 
L 3950 3450 
z
M 2350 1050 
L 1275 1050 
L 1275 175 
L 2350 175 
L 2350 1050 
z
" transform="scale(0.015625)"/>
       <path id="MS-Gothic-28" d="M 2725 -575 
Q 1475 650 1475 2300 
Q 1475 3950 2725 5175 
L 3000 4900 
Q 1850 3825 1850 2300 
Q 1850 775 3000 -300 
L 2725 -575 
z
" transform="scale(0.015625)"/>
       <path id="MS-Gothic-5186" d="M 5575 75 
Q 5575 -325 5175 -325 
L 4525 -325 
L 4375 225 
L 4900 225 
Q 5000 225 5000 325 
L 5000 2000 
L 1325 2000 
L 1325 -350 
L 750 -350 
L 750 4725 
L 5575 4725 
L 5575 75 
z
M 5000 4250 
L 3400 4250 
L 3400 2475 
L 5000 2475 
L 5000 4250 
z
M 1325 4250 
L 1325 2475 
L 2900 2475 
L 2900 4250 
L 1325 4250 
z
" transform="scale(0.015625)"/>
       <path id="MS-Gothic-29" d="M 1700 2300 
Q 1700 650 450 -575 
L 175 -300 
Q 1325 775 1325 2300 
Q 1325 3825 175 4900 
L 450 5175 
Q 1700 3950 1700 2300 
z
" transform="scale(0.015625)"/>
      </defs>
      <use xlink:href="#MS-Gothic-652f"/>
      <use xlink:href="#MS-Gothic-51fa" x="100"/>
      <use xlink:href="#MS-Gothic-984d" x="200"/>
      <use xlink:href="#MS-Gothic-28" x="300"/>
      <use xlink:href="#MS-Gothic-5186" x="350"/>
      <use xlink:href="#MS-Gothic-29" x="450"/>
     </g>
    </g>
   </g>
   <g id="patch_33">
    <path d="M 45 320.4 
L 45 43.2 
" style="fill: none; stroke: #000000; stroke-width: 0.8; stroke-linejoin: miter; stroke-linecap: square"/>
   </g>
   <g id="patch_34">
    <path d="M 324 320.4 
L 324 43.2 
" style="fill: none; stroke: #000000; stroke-width: 0.8; stroke-linejoin: miter; stroke-linecap: square"/>
   </g>
   <g id="patch_35">
    <path d="M 45 320.4 
L 324 320.4 
" style="fill: none; stroke: #000000; stroke-width: 0.8; stroke-linejoin: miter; stroke-linecap: square"/>
   </g>
   <g id="patch_36">
    <path d="M 45 43.2 
L 324 43.2 
" style="fill: none; stroke: #000000; stroke-width: 0.8; stroke-linejoin: miter; stroke-linecap: square"/>
   </g>
  </g>
 </g>
 <defs>
  <clipPath id="p9f5f60e80c">
   <rect x="45" y="43.2" width="279" height="277.2"/>
  </clipPath>
 </defs>
</svg>
