<?xml version="1.0" encoding="utf-8" standalone="no"?>
<!DOCTYPE svg PUBLIC "-//W3C//DTD SVG 1.1//EN"
  "http://www.w3.org/Graphics/SVG/1.1/DTD/svg11.dtd">
<svg xmlns:xlink="http://www.w3.org/1999/xlink" width="360pt" height="360pt" viewBox="0 0 360 360" xmlns="http://www.w3.org/2000/svg" version="1.1">
 <metadata>
  <rdf:RDF xmlns:dc="http://purl.org/dc/elements/1.1/" xmlns:cc="http://creativecommons.org/ns#" xmlns:rdf="http://www.w3.org/1999/02/22-rdf-syntax-ns#">
   <cc:Work>
    <dc:type rdf:resource="http://purl.org/dc/dcmitype/StillImage"/>
    <dc:date>2022-12-07T04:13:23.340078</dc:date>
    <dc:format>image/svg+xml</dc:format>
    <dc:creator>
     <cc:Agent>
      <dc:title>Matplotlib v3.6.2, https://matplotlib.org/</dc:title>
     </cc:Agent>
    </dc:creator>
   </cc:Work>
  </rdf:RDF>
 </metadata>
 <defs>
  <style type="text/css">*{stroke-linejoin: round; stroke-linecap: butt}</style>
 </defs>
 <g id="figure_1">
  <g id="patch_1">
   <path d="M 0 360 
L 360 360 
L 360 0 
L 0 0 
L 0 360 
z
" style="fill: none"/>
  </g>
  <g id="axes_1">
   <g id="patch_2">
    <path d="M 45 320.4 
L 324 320.4 
L 324 43.2 
L 45 43.2 
L 45 320.4 
z
" style="fill: none"/>
   </g>
   <g id="patch_3">
    <path d="M 50.4 320.4 
L 57.6 320.4 
L 57.6 300.092308 
L 50.4 300.092308 
z
" clip-path="url(#ped8e43f8c7)" style="fill: #00bfff; stroke: #0000ff; stroke-linejoin: miter"/>
   </g>
   <g id="patch_4">
    <path d="M 59.4 320.4 
L 66.6 320.4 
L 66.6 279.784615 
L 59.4 279.784615 
z
" clip-path="url(#ped8e43f8c7)" style="fill: #00bfff; stroke: #0000ff; stroke-linejoin: miter"/>
   </g>
   <g id="patch_5">
    <path d="M 68.4 320.4 
L 75.6 320.4 
L 75.6 56.4 
L 68.4 56.4 
z
" clip-path="url(#ped8e43f8c7)" style="fill: #00bfff; stroke: #0000ff; stroke-linejoin: miter"/>
   </g>
   <g id="patch_6">
    <path d="M 77.4 320.4 
L 84.6 320.4 
L 84.6 320.4 
L 77.4 320.4 
z
" clip-path="url(#ped8e43f8c7)" style="fill: #00bfff; stroke: #0000ff; stroke-linejoin: miter"/>
   </g>
   <g id="patch_7">
    <path d="M 86.4 320.4 
L 93.6 320.4 
L 93.6 320.4 
L 86.4 320.4 
z
" clip-path="url(#ped8e43f8c7)" style="fill: #00bfff; stroke: #0000ff; stroke-linejoin: miter"/>
   </g>
   <g id="patch_8">
    <path d="M 95.4 320.4 
L 102.6 320.4 
L 102.6 320.4 
L 95.4 320.4 
z
" clip-path="url(#ped8e43f8c7)" style="fill: #00bfff; stroke: #0000ff; stroke-linejoin: miter"/>
   </g>
   <g id="patch_9">
    <path d="M 104.4 320.4 
L 111.6 320.4 
L 111.6 178.246154 
L 104.4 178.246154 
z
" clip-path="url(#ped8e43f8c7)" style="fill: #00bfff; stroke: #0000ff; stroke-linejoin: miter"/>
   </g>
   <g id="patch_10">
    <path d="M 113.4 320.4 
L 120.6 320.4 
L 120.6 316.338462 
L 113.4 316.338462 
z
" clip-path="url(#ped8e43f8c7)" style="fill: #00bfff; stroke: #0000ff; stroke-linejoin: miter"/>
   </g>
   <g id="patch_11">
    <path d="M 122.4 320.4 
L 129.6 320.4 
L 129.6 320.4 
L 122.4 320.4 
z
" clip-path="url(#ped8e43f8c7)" style="fill: #00bfff; stroke: #0000ff; stroke-linejoin: miter"/>
   </g>
   <g id="patch_12">
    <path d="M 131.4 320.4 
L 138.6 320.4 
L 138.6 320.4 
L 131.4 320.4 
z
" clip-path="url(#ped8e43f8c7)" style="fill: #00bfff; stroke: #0000ff; stroke-linejoin: miter"/>
   </g>
   <g id="patch_13">
    <path d="M 140.4 320.4 
L 147.6 320.4 
L 147.6 320.4 
L 140.4 320.4 
z
" clip-path="url(#ped8e43f8c7)" style="fill: #00bfff; stroke: #0000ff; stroke-linejoin: miter"/>
   </g>
   <g id="patch_14">
    <path d="M 149.4 320.4 
L 156.6 320.4 
L 156.6 320.4 
L 149.4 320.4 
z
" clip-path="url(#ped8e43f8c7)" style="fill: #00bfff; stroke: #0000ff; stroke-linejoin: miter"/>
   </g>
   <g id="patch_15">
    <path d="M 158.4 320.4 
L 165.6 320.4 
L 165.6 320.4 
L 158.4 320.4 
z
" clip-path="url(#ped8e43f8c7)" style="fill: #00bfff; stroke: #0000ff; stroke-linejoin: miter"/>
   </g>
   <g id="patch_16">
    <path d="M 167.4 320.4 
L 174.6 320.4 
L 174.6 320.4 
L 167.4 320.4 
z
" clip-path="url(#ped8e43f8c7)" style="fill: #00bfff; stroke: #0000ff; stroke-linejoin: miter"/>
   </g>
   <g id="patch_17">
    <path d="M 176.4 320.4 
L 183.6 320.4 
L 183.6 320.4 
L 176.4 320.4 
z
" clip-path="url(#ped8e43f8c7)" style="fill: #00bfff; stroke: #0000ff; stroke-linejoin: miter"/>
   </g>
   <g id="patch_18">
    <path d="M 185.4 320.4 
L 192.6 320.4 
L 192.6 320.4 
L 185.4 320.4 
z
" clip-path="url(#ped8e43f8c7)" style="fill: #00bfff; stroke: #0000ff; stroke-linejoin: miter"/>
   </g>
   <g id="patch_19">
    <path d="M 194.4 320.4 
L 201.6 320.4 
L 201.6 320.4 
L 194.4 320.4 
z
" clip-path="url(#ped8e43f8c7)" style="fill: #00bfff; stroke: #0000ff; stroke-linejoin: miter"/>
   </g>
   <g id="patch_20">
    <path d="M 203.4 320.4 
L 210.6 320.4 
L 210.6 320.4 
L 203.4 320.4 
z
" clip-path="url(#ped8e43f8c7)" style="fill: #00bfff; stroke: #0000ff; stroke-linejoin: miter"/>
   </g>
   <g id="patch_21">
    <path d="M 212.4 320.4 
L 219.6 320.4 
L 219.6 320.4 
L 212.4 320.4 
z
" clip-path="url(#ped8e43f8c7)" style="fill: #00bfff; stroke: #0000ff; stroke-linejoin: miter"/>
   </g>
   <g id="patch_22">
    <path d="M 221.4 320.4 
L 228.6 320.4 
L 228.6 320.4 
L 221.4 320.4 
z
" clip-path="url(#ped8e43f8c7)" style="fill: #00bfff; stroke: #0000ff; stroke-linejoin: miter"/>
   </g>
   <g id="patch_23">
    <path d="M 230.4 320.4 
L 237.6 320.4 
L 237.6 320.4 
L 230.4 320.4 
z
" clip-path="url(#ped8e43f8c7)" style="fill: #00bfff; stroke: #0000ff; stroke-linejoin: miter"/>
   </g>
   <g id="patch_24">
    <path d="M 239.4 320.4 
L 246.6 320.4 
L 246.6 320.4 
L 239.4 320.4 
z
" clip-path="url(#ped8e43f8c7)" style="fill: #00bfff; stroke: #0000ff; stroke-linejoin: miter"/>
   </g>
   <g id="patch_25">
    <path d="M 248.4 320.4 
L 255.6 320.4 
L 255.6 320.4 
L 248.4 320.4 
z
" clip-path="url(#ped8e43f8c7)" style="fill: #00bfff; stroke: #0000ff; stroke-linejoin: miter"/>
   </g>
   <g id="patch_26">
    <path d="M 257.4 320.4 
L 264.6 320.4 
L 264.6 320.4 
L 257.4 320.4 
z
" clip-path="url(#ped8e43f8c7)" style="fill: #00bfff; stroke: #0000ff; stroke-linejoin: miter"/>
   </g>
   <g id="patch_27">
    <path d="M 266.4 320.4 
L 273.6 320.4 
L 273.6 320.4 
L 266.4 320.4 
z
" clip-path="url(#ped8e43f8c7)" style="fill: #00bfff; stroke: #0000ff; stroke-linejoin: miter"/>
   </g>
   <g id="patch_28">
    <path d="M 275.4 320.4 
L 282.6 320.4 
L 282.6 320.4 
L 275.4 320.4 
z
" clip-path="url(#ped8e43f8c7)" style="fill: #00bfff; stroke: #0000ff; stroke-linejoin: miter"/>
   </g>
   <g id="patch_29">
    <path d="M 284.4 320.4 
L 291.6 320.4 
L 291.6 320.4 
L 284.4 320.4 
z
" clip-path="url(#ped8e43f8c7)" style="fill: #00bfff; stroke: #0000ff; stroke-linejoin: miter"/>
   </g>
   <g id="patch_30">
    <path d="M 293.4 320.4 
L 300.6 320.4 
L 300.6 320.4 
L 293.4 320.4 
z
" clip-path="url(#ped8e43f8c7)" style="fill: #00bfff; stroke: #0000ff; stroke-linejoin: miter"/>
   </g>
   <g id="patch_31">
    <path d="M 302.4 320.4 
L 309.6 320.4 
L 309.6 320.4 
L 302.4 320.4 
z
" clip-path="url(#ped8e43f8c7)" style="fill: #00bfff; stroke: #0000ff; stroke-linejoin: miter"/>
   </g>
   <g id="patch_32">
    <path d="M 311.4 320.4 
L 318.6 320.4 
L 318.6 320.4 
L 311.4 320.4 
z
" clip-path="url(#ped8e43f8c7)" style="fill: #00bfff; stroke: #0000ff; stroke-linejoin: miter"/>
   </g>
   <g id="patch_33">
    <path d="M 320.4 320.4 
L 327.6 320.4 
L 327.6 320.4 
L 320.4 320.4 
z
" clip-path="url(#ped8e43f8c7)" style="fill: #00bfff; stroke: #0000ff; stroke-linejoin: miter"/>
   </g>
   <g id="matplotlib.axis_1">
    <g id="xtick_1">
     <g id="line2d_1">
      <path d="M 45 320.4 
L 45 43.2 
" clip-path="url(#ped8e43f8c7)" style="fill: none; stroke: #b0b0b0; stroke-width: 0.8; stroke-linecap: square"/>
     </g>
     <g id="line2d_2">
      <defs>
       <path id="m7a546ff8f0" d="M 0 0 
L 0 3.5 
" style="stroke: #000000; stroke-width: 0.8"/>
      </defs>
      <g>
       <use xlink:href="#m7a546ff8f0" x="45" y="320.4" style="stroke: #000000; stroke-width: 0.8"/>
      </g>
     </g>
     <g id="text_1">
      <!-- 0 -->
      <g transform="translate(41.81875 334.998438) scale(0.1 -0.1)">
       <defs>
        <path id="DejaVuSans-30" d="M 2034 4250 
Q 1547 4250 1301 3770 
Q 1056 3291 1056 2328 
Q 1056 1369 1301 889 
Q 1547 409 2034 409 
Q 2525 409 2770 889 
Q 3016 1369 3016 2328 
Q 3016 3291 2770 3770 
Q 2525 4250 2034 4250 
z
M 2034 4750 
Q 2819 4750 3233 4129 
Q 3647 3509 3647 2328 
Q 3647 1150 3233 529 
Q 2819 -91 2034 -91 
Q 1250 -91 836 529 
Q 422 1150 422 2328 
Q 422 3509 836 4129 
Q 1250 4750 2034 4750 
z
" transform="scale(0.015625)"/>
       </defs>
       <use xlink:href="#DejaVuSans-30"/>
      </g>
     </g>
    </g>
    <g id="xtick_2">
     <g id="line2d_3">
      <path d="M 90 320.4 
L 90 43.2 
" clip-path="url(#ped8e43f8c7)" style="fill: none; stroke: #b0b0b0; stroke-width: 0.8; stroke-linecap: square"/>
     </g>
     <g id="line2d_4">
      <g>
       <use xlink:href="#m7a546ff8f0" x="90" y="320.4" style="stroke: #000000; stroke-width: 0.8"/>
      </g>
     </g>
     <g id="text_2">
      <!-- 5 -->
      <g transform="translate(86.81875 334.998438) scale(0.1 -0.1)">
       <defs>
        <path id="DejaVuSans-35" d="M 691 4666 
L 3169 4666 
L 3169 4134 
L 1269 4134 
L 1269 2991 
Q 1406 3038 1543 3061 
Q 1681 3084 1819 3084 
Q 2600 3084 3056 2656 
Q 3513 2228 3513 1497 
Q 3513 744 3044 326 
Q 2575 -91 1722 -91 
Q 1428 -91 1123 -41 
Q 819 9 494 109 
L 494 744 
Q 775 591 1075 516 
Q 1375 441 1709 441 
Q 2250 441 2565 725 
Q 2881 1009 2881 1497 
Q 2881 1984 2565 2268 
Q 2250 2553 1709 2553 
Q 1456 2553 1204 2497 
Q 953 2441 691 2322 
L 691 4666 
z
" transform="scale(0.015625)"/>
       </defs>
       <use xlink:href="#DejaVuSans-35"/>
      </g>
     </g>
    </g>
    <g id="xtick_3">
     <g id="line2d_5">
      <path d="M 135 320.4 
L 135 43.2 
" clip-path="url(#ped8e43f8c7)" style="fill: none; stroke: #b0b0b0; stroke-width: 0.8; stroke-linecap: square"/>
     </g>
     <g id="line2d_6">
      <g>
       <use xlink:href="#m7a546ff8f0" x="135" y="320.4" style="stroke: #000000; stroke-width: 0.8"/>
      </g>
     </g>
     <g id="text_3">
      <!-- 10 -->
      <g transform="translate(128.6375 334.998438) scale(0.1 -0.1)">
       <defs>
        <path id="DejaVuSans-31" d="M 794 531 
L 1825 531 
L 1825 4091 
L 703 3866 
L 703 4441 
L 1819 4666 
L 2450 4666 
L 2450 531 
L 3481 531 
L 3481 0 
L 794 0 
L 794 531 
z
" transform="scale(0.015625)"/>
       </defs>
       <use xlink:href="#DejaVuSans-31"/>
       <use xlink:href="#DejaVuSans-30" x="63.623047"/>
      </g>
     </g>
    </g>
    <g id="xtick_4">
     <g id="line2d_7">
      <path d="M 180 320.4 
L 180 43.2 
" clip-path="url(#ped8e43f8c7)" style="fill: none; stroke: #b0b0b0; stroke-width: 0.8; stroke-linecap: square"/>
     </g>
     <g id="line2d_8">
      <g>
       <use xlink:href="#m7a546ff8f0" x="180" y="320.4" style="stroke: #000000; stroke-width: 0.8"/>
      </g>
     </g>
     <g id="text_4">
      <!-- 15 -->
      <g transform="translate(173.6375 334.998438) scale(0.1 -0.1)">
       <use xlink:href="#DejaVuSans-31"/>
       <use xlink:href="#DejaVuSans-35" x="63.623047"/>
      </g>
     </g>
    </g>
    <g id="xtick_5">
     <g id="line2d_9">
      <path d="M 225 320.4 
L 225 43.2 
" clip-path="url(#ped8e43f8c7)" style="fill: none; stroke: #b0b0b0; stroke-width: 0.8; stroke-linecap: square"/>
     </g>
     <g id="line2d_10">
      <g>
       <use xlink:href="#m7a546ff8f0" x="225" y="320.4" style="stroke: #000000; stroke-width: 0.8"/>
      </g>
     </g>
     <g id="text_5">
      <!-- 20 -->
      <g transform="translate(218.6375 334.998438) scale(0.1 -0.1)">
       <defs>
        <path id="DejaVuSans-32" d="M 1228 531 
L 3431 531 
L 3431 0 
L 469 0 
L 469 531 
Q 828 903 1448 1529 
Q 2069 2156 2228 2338 
Q 2531 2678 2651 2914 
Q 2772 3150 2772 3378 
Q 2772 3750 2511 3984 
Q 2250 4219 1831 4219 
Q 1534 4219 1204 4116 
Q 875 4013 500 3803 
L 500 4441 
Q 881 4594 1212 4672 
Q 1544 4750 1819 4750 
Q 2544 4750 2975 4387 
Q 3406 4025 3406 3419 
Q 3406 3131 3298 2873 
Q 3191 2616 2906 2266 
Q 2828 2175 2409 1742 
Q 1991 1309 1228 531 
z
" transform="scale(0.015625)"/>
       </defs>
       <use xlink:href="#DejaVuSans-32"/>
       <use xlink:href="#DejaVuSans-30" x="63.623047"/>
      </g>
     </g>
    </g>
    <g id="xtick_6">
     <g id="line2d_11">
      <path d="M 270 320.4 
L 270 43.2 
" clip-path="url(#ped8e43f8c7)" style="fill: none; stroke: #b0b0b0; stroke-width: 0.8; stroke-linecap: square"/>
     </g>
     <g id="line2d_12">
      <g>
       <use xlink:href="#m7a546ff8f0" x="270" y="320.4" style="stroke: #000000; stroke-width: 0.8"/>
      </g>
     </g>
     <g id="text_6">
      <!-- 25 -->
      <g transform="translate(263.6375 334.998438) scale(0.1 -0.1)">
       <use xlink:href="#DejaVuSans-32"/>
       <use xlink:href="#DejaVuSans-35" x="63.623047"/>
      </g>
     </g>
    </g>
    <g id="xtick_7">
     <g id="line2d_13">
      <path d="M 315 320.4 
L 315 43.2 
" clip-path="url(#ped8e43f8c7)" style="fill: none; stroke: #b0b0b0; stroke-width: 0.8; stroke-linecap: square"/>
     </g>
     <g id="line2d_14">
      <g>
       <use xlink:href="#m7a546ff8f0" x="315" y="320.4" style="stroke: #000000; stroke-width: 0.8"/>
      </g>
     </g>
     <g id="text_7">
      <!-- 30 -->
      <g transform="translate(308.6375 334.998438) scale(0.1 -0.1)">
       <defs>
        <path id="DejaVuSans-33" d="M 2597 2516 
Q 3050 2419 3304 2112 
Q 3559 1806 3559 1356 
Q 3559 666 3084 287 
Q 2609 -91 1734 -91 
Q 1441 -91 1130 -33 
Q 819 25 488 141 
L 488 750 
Q 750 597 1062 519 
Q 1375 441 1716 441 
Q 2309 441 2620 675 
Q 2931 909 2931 1356 
Q 2931 1769 2642 2001 
Q 2353 2234 1838 2234 
L 1294 2234 
L 1294 2753 
L 1863 2753 
Q 2328 2753 2575 2939 
Q 2822 3125 2822 3475 
Q 2822 3834 2567 4026 
Q 2313 4219 1838 4219 
Q 1578 4219 1281 4162 
Q 984 4106 628 3988 
L 628 4550 
Q 988 4650 1302 4700 
Q 1616 4750 1894 4750 
Q 2613 4750 3031 4423 
Q 3450 4097 3450 3541 
Q 3450 3153 3228 2886 
Q 3006 2619 2597 2516 
z
" transform="scale(0.015625)"/>
       </defs>
       <use xlink:href="#DejaVuSans-33"/>
       <use xlink:href="#DejaVuSans-30" x="63.623047"/>
      </g>
     </g>
    </g>
    <g id="text_8">
     <!-- 日付 -->
     <g transform="translate(168.5 353.390625) scale(0.16 -0.16)">
      <defs>
       <path id="MS-Gothic-65e5" d="M 1825 -225 
L 1250 -225 
L 1250 4600 
L 5175 4600 
L 5175 -125 
L 4600 -125 
L 4600 225 
L 1825 225 
L 1825 -225 
z
M 4600 2700 
L 4600 4125 
L 1825 4125 
L 1825 2700 
L 4600 2700 
z
M 4600 700 
L 4600 2225 
L 1825 2225 
L 1825 700 
L 4600 700 
z
" transform="scale(0.015625)"/>
       <path id="MS-Gothic-4ed8" d="M 2175 4675 
Q 2025 4050 1725 3425 
Q 1975 3375 1775 3225 
L 1775 -475 
L 1275 -475 
L 1275 2625 
Q 1000 2225 725 1950 
L 325 2400 
Q 1400 3425 1725 5025 
L 2250 4825 
Q 2350 4725 2175 4675 
z
M 4500 3575 
L 4500 5000 
L 4975 5000 
Q 5175 4975 5000 4850 
L 5000 3575 
L 6025 3575 
L 6025 3100 
L 5000 3100 
L 5000 0 
Q 5000 -400 4600 -400 
L 3850 -400 
L 3725 75 
L 4400 75 
Q 4500 75 4500 175 
L 4500 3100 
L 2250 3100 
L 2250 3575 
L 4500 3575 
z
M 3050 2450 
Q 3475 1925 3825 1275 
L 3325 950 
Q 2975 1675 2575 2150 
L 3050 2450 
z
" transform="scale(0.015625)"/>
      </defs>
      <use xlink:href="#MS-Gothic-65e5"/>
      <use xlink:href="#MS-Gothic-4ed8" x="100"/>
     </g>
    </g>
   </g>
   <g id="matplotlib.axis_2">
    <g id="ytick_1">
     <g id="line2d_15">
      <path d="M 45 320.4 
L 324 320.4 
" clip-path="url(#ped8e43f8c7)" style="fill: none; stroke: #b0b0b0; stroke-width: 0.8; stroke-linecap: square"/>
     </g>
     <g id="line2d_16">
      <defs>
       <path id="m2be0459c04" d="M 0 0 
L -3.5 0 
" style="stroke: #000000; stroke-width: 0.8"/>
      </defs>
      <g>
       <use xlink:href="#m2be0459c04" x="45" y="320.4" style="stroke: #000000; stroke-width: 0.8"/>
      </g>
     </g>
     <g id="text_9">
      <!-- 0 -->
      <g transform="translate(31.6375 324.199219) scale(0.1 -0.1)">
       <use xlink:href="#DejaVuSans-30"/>
      </g>
     </g>
    </g>
    <g id="ytick_2">
     <g id="line2d_17">
      <path d="M 45 279.784615 
L 324 279.784615 
" clip-path="url(#ped8e43f8c7)" style="fill: none; stroke: #b0b0b0; stroke-width: 0.8; stroke-linecap: square"/>
     </g>
     <g id="line2d_18">
      <g>
       <use xlink:href="#m2be0459c04" x="45" y="279.784615" style="stroke: #000000; stroke-width: 0.8"/>
      </g>
     </g>
     <g id="text_10">
      <!-- 1000 -->
      <g transform="translate(12.55 283.583834) scale(0.1 -0.1)">
       <use xlink:href="#DejaVuSans-31"/>
       <use xlink:href="#DejaVuSans-30" x="63.623047"/>
       <use xlink:href="#DejaVuSans-30" x="127.246094"/>
       <use xlink:href="#DejaVuSans-30" x="190.869141"/>
      </g>
     </g>
    </g>
    <g id="ytick_3">
     <g id="line2d_19">
      <path d="M 45 239.169231 
L 324 239.169231 
" clip-path="url(#ped8e43f8c7)" style="fill: none; stroke: #b0b0b0; stroke-width: 0.8; stroke-linecap: square"/>
     </g>
     <g id="line2d_20">
      <g>
       <use xlink:href="#m2be0459c04" x="45" y="239.169231" style="stroke: #000000; stroke-width: 0.8"/>
      </g>
     </g>
     <g id="text_11">
      <!-- 2000 -->
      <g transform="translate(12.55 242.96845) scale(0.1 -0.1)">
       <use xlink:href="#DejaVuSans-32"/>
       <use xlink:href="#DejaVuSans-30" x="63.623047"/>
       <use xlink:href="#DejaVuSans-30" x="127.246094"/>
       <use xlink:href="#DejaVuSans-30" x="190.869141"/>
      </g>
     </g>
    </g>
    <g id="ytick_4">
     <g id="line2d_21">
      <path d="M 45 198.553846 
L 324 198.553846 
" clip-path="url(#ped8e43f8c7)" style="fill: none; stroke: #b0b0b0; stroke-width: 0.8; stroke-linecap: square"/>
     </g>
     <g id="line2d_22">
      <g>
       <use xlink:href="#m2be0459c04" x="45" y="198.553846" style="stroke: #000000; stroke-width: 0.8"/>
      </g>
     </g>
     <g id="text_12">
      <!-- 3000 -->
      <g transform="translate(12.55 202.353065) scale(0.1 -0.1)">
       <use xlink:href="#DejaVuSans-33"/>
       <use xlink:href="#DejaVuSans-30" x="63.623047"/>
       <use xlink:href="#DejaVuSans-30" x="127.246094"/>
       <use xlink:href="#DejaVuSans-30" x="190.869141"/>
      </g>
     </g>
    </g>
    <g id="ytick_5">
     <g id="line2d_23">
      <path d="M 45 157.938462 
L 324 157.938462 
" clip-path="url(#ped8e43f8c7)" style="fill: none; stroke: #b0b0b0; stroke-width: 0.8; stroke-linecap: square"/>
     </g>
     <g id="line2d_24">
      <g>
       <use xlink:href="#m2be0459c04" x="45" y="157.938462" style="stroke: #000000; stroke-width: 0.8"/>
      </g>
     </g>
     <g id="text_13">
      <!-- 4000 -->
      <g transform="translate(12.55 161.73768) scale(0.1 -0.1)">
       <defs>
        <path id="DejaVuSans-34" d="M 2419 4116 
L 825 1625 
L 2419 1625 
L 2419 4116 
z
M 2253 4666 
L 3047 4666 
L 3047 1625 
L 3713 1625 
L 3713 1100 
L 3047 1100 
L 3047 0 
L 2419 0 
L 2419 1100 
L 313 1100 
L 313 1709 
L 2253 4666 
z
" transform="scale(0.015625)"/>
       </defs>
       <use xlink:href="#DejaVuSans-34"/>
       <use xlink:href="#DejaVuSans-30" x="63.623047"/>
       <use xlink:href="#DejaVuSans-30" x="127.246094"/>
       <use xlink:href="#DejaVuSans-30" x="190.869141"/>
      </g>
     </g>
    </g>
    <g id="ytick_6">
     <g id="line2d_25">
      <path d="M 45 117.323077 
L 324 117.323077 
" clip-path="url(#ped8e43f8c7)" style="fill: none; stroke: #b0b0b0; stroke-width: 0.8; stroke-linecap: square"/>
     </g>
     <g id="line2d_26">
      <g>
       <use xlink:href="#m2be0459c04" x="45" y="117.323077" style="stroke: #000000; stroke-width: 0.8"/>
      </g>
     </g>
     <g id="text_14">
      <!-- 5000 -->
      <g transform="translate(12.55 121.122296) scale(0.1 -0.1)">
       <use xlink:href="#DejaVuSans-35"/>
       <use xlink:href="#DejaVuSans-30" x="63.623047"/>
       <use xlink:href="#DejaVuSans-30" x="127.246094"/>
       <use xlink:href="#DejaVuSans-30" x="190.869141"/>
      </g>
     </g>
    </g>
    <g id="ytick_7">
     <g id="line2d_27">
      <path d="M 45 76.707692 
L 324 76.707692 
" clip-path="url(#ped8e43f8c7)" style="fill: none; stroke: #b0b0b0; stroke-width: 0.8; stroke-linecap: square"/>
     </g>
     <g id="line2d_28">
      <g>
       <use xlink:href="#m2be0459c04" x="45" y="76.707692" style="stroke: #000000; stroke-width: 0.8"/>
      </g>
     </g>
     <g id="text_15">
      <!-- 6000 -->
      <g transform="translate(12.55 80.506911) scale(0.1 -0.1)">
       <defs>
        <path id="DejaVuSans-36" d="M 2113 2584 
Q 1688 2584 1439 2293 
Q 1191 2003 1191 1497 
Q 1191 994 1439 701 
Q 1688 409 2113 409 
Q 2538 409 2786 701 
Q 3034 994 3034 1497 
Q 3034 2003 2786 2293 
Q 2538 2584 2113 2584 
z
M 3366 4563 
L 3366 3988 
Q 3128 4100 2886 4159 
Q 2644 4219 2406 4219 
Q 1781 4219 1451 3797 
Q 1122 3375 1075 2522 
Q 1259 2794 1537 2939 
Q 1816 3084 2150 3084 
Q 2853 3084 3261 2657 
Q 3669 2231 3669 1497 
Q 3669 778 3244 343 
Q 2819 -91 2113 -91 
Q 1303 -91 875 529 
Q 447 1150 447 2328 
Q 447 3434 972 4092 
Q 1497 4750 2381 4750 
Q 2619 4750 2861 4703 
Q 3103 4656 3366 4563 
z
" transform="scale(0.015625)"/>
       </defs>
       <use xlink:href="#DejaVuSans-36"/>
       <use xlink:href="#DejaVuSans-30" x="63.623047"/>
       <use xlink:href="#DejaVuSans-30" x="127.246094"/>
       <use xlink:href="#DejaVuSans-30" x="190.869141"/>
      </g>
     </g>
    </g>
    <g id="text_16">
     <!-- 支出額(円) -->
     <g transform="translate(6.4875 221.8) rotate(-90) scale(0.16 -0.16)">
      <defs>
       <path id="MS-Gothic-652f" d="M 3725 875 
Q 4550 350 5975 100 
L 5775 -525 
Q 4125 -150 3275 525 
Q 2175 -175 600 -550 
L 375 25 
Q 1850 300 2850 875 
Q 2200 1600 1850 2475 
L 1075 2475 
L 1075 2950 
L 2900 2950 
L 2900 3850 
L 500 3850 
L 500 4325 
L 2900 4325 
L 2900 5125 
L 3450 5125 
Q 3700 5075 3475 4925 
L 3475 4325 
L 5900 4325 
L 5900 3850 
L 3475 3850 
L 3475 2950 
L 4625 2950 
L 4775 3100 
L 5200 2725 
L 5100 2675 
Q 4475 1525 3725 875 
z
M 2450 2475 
Q 2775 1725 3300 1225 
Q 3900 1725 4300 2475 
L 2450 2475 
z
" transform="scale(0.015625)"/>
       <path id="MS-Gothic-51fa" d="M 1425 4525 
Q 1625 4500 1450 4375 
L 1450 3025 
L 2925 3025 
L 2925 5025 
L 3400 5025 
Q 3600 5000 3425 4875 
L 3425 3025 
L 4875 3025 
L 4875 4500 
L 5350 4500 
Q 5550 4475 5375 4350 
L 5375 2325 
L 4875 2325 
L 4875 2550 
L 3425 2550 
L 3425 400 
L 5075 400 
L 5075 1925 
L 5550 1925 
Q 5750 1900 5575 1775 
L 5575 -350 
L 5075 -350 
L 5075 -75 
L 1200 -75 
L 1200 -425 
L 700 -425 
L 700 1950 
L 1175 1950 
Q 1375 1925 1200 1800 
L 1200 400 
L 2925 400 
L 2925 2550 
L 1450 2550 
L 1450 2275 
L 950 2275 
L 950 4525 
L 1425 4525 
z
" transform="scale(0.015625)"/>
       <path id="MS-Gothic-984d" d="M 850 1300 
L 425 1100 
L 250 1550 
Q 1150 1900 1625 2300 
Q 1400 2500 1200 2725 
Q 925 2425 550 2175 
L 325 2600 
Q 1175 3100 1400 3925 
L 1825 3850 
Q 2000 3825 1800 3700 
L 1675 3450 
L 2525 3450 
L 2600 3525 
L 2975 3225 
Q 3025 3125 2875 3125 
Q 2650 2750 2225 2325 
Q 2600 2025 3450 1750 
L 3250 1250 
Q 2325 1725 1950 2025 
Q 1550 1675 1100 1450 
L 2775 1450 
L 2775 -350 
L 2350 -350 
L 2350 -225 
L 1275 -225 
L 1275 -475 
L 850 -475 
L 850 1300 
z
M 3525 525 
L 3525 3850 
L 4275 3850 
L 4450 4475 
L 3425 4475 
L 3425 4950 
L 6000 4950 
L 6000 4475 
L 4950 4475 
L 4675 3850 
L 5800 3850 
L 5800 525 
L 3525 525 
z
M 6000 -575 
Q 5425 -375 4825 50 
L 5150 425 
Q 5700 75 6250 -100 
L 6000 -575 
z
M 1900 2575 
Q 2100 2775 2350 3150 
L 1550 3150 
L 1450 3000 
Q 1675 2750 1900 2575 
z
M 3000 -75 
Q 3700 75 4150 400 
L 4475 0 
Q 4600 -175 4350 -100 
Q 3900 -375 3225 -600 
L 3000 -75 
z
M 2125 4475 
L 3200 4475 
L 3200 3600 
L 2775 3600 
L 2775 4075 
L 950 4075 
L 950 3425 
L 525 3425 
L 525 4475 
L 1625 4475 
L 1625 5125 
L 2100 5125 
Q 2300 5100 2125 4975 
L 2125 4475 
z
M 3950 1500 
L 3950 925 
L 5375 925 
L 5375 1500 
L 3950 1500 
z
M 3950 2475 
L 3950 1900 
L 5375 1900 
L 5375 2475 
L 3950 2475 
z
M 3950 3450 
L 3950 2875 
L 5375 2875 
L 5375 3450 
L 3950 3450 
z
M 2350 1050 
L 1275 1050 
L 1275 175 
L 2350 175 
L 2350 1050 
z
" transform="scale(0.015625)"/>
       <path id="MS-Gothic-28" d="M 2725 -575 
Q 1475 650 1475 2300 
Q 1475 3950 2725 5175 
L 3000 4900 
Q 1850 3825 1850 2300 
Q 1850 775 3000 -300 
L 2725 -575 
z
" transform="scale(0.015625)"/>
       <path id="MS-Gothic-5186" d="M 5575 75 
Q 5575 -325 5175 -325 
L 4525 -325 
L 4375 225 
L 4900 225 
Q 5000 225 5000 325 
L 5000 2000 
L 1325 2000 
L 1325 -350 
L 750 -350 
L 750 4725 
L 5575 4725 
L 5575 75 
z
M 5000 4250 
L 3400 4250 
L 3400 2475 
L 5000 2475 
L 5000 4250 
z
M 1325 4250 
L 1325 2475 
L 2900 2475 
L 2900 4250 
L 1325 4250 
z
" transform="scale(0.015625)"/>
       <path id="MS-Gothic-29" d="M 1700 2300 
Q 1700 650 450 -575 
L 175 -300 
Q 1325 775 1325 2300 
Q 1325 3825 175 4900 
L 450 5175 
Q 1700 3950 1700 2300 
z
" transform="scale(0.015625)"/>
      </defs>
      <use xlink:href="#MS-Gothic-652f"/>
      <use xlink:href="#MS-Gothic-51fa" x="100"/>
      <use xlink:href="#MS-Gothic-984d" x="200"/>
      <use xlink:href="#MS-Gothic-28" x="300"/>
      <use xlink:href="#MS-Gothic-5186" x="350"/>
      <use xlink:href="#MS-Gothic-29" x="450"/>
     </g>
    </g>
   </g>
   <g id="patch_34">
    <path d="M 45 320.4 
L 45 43.2 
" style="fill: none; stroke: #000000; stroke-width: 0.8; stroke-linejoin: miter; stroke-linecap: square"/>
   </g>
   <g id="patch_35">
    <path d="M 324 320.4 
L 324 43.2 
" style="fill: none; stroke: #000000; stroke-width: 0.8; stroke-linejoin: miter; stroke-linecap: square"/>
   </g>
   <g id="patch_36">
    <path d="M 45 320.4 
L 324 320.4 
" style="fill: none; stroke: #000000; stroke-width: 0.8; stroke-linejoin: miter; stroke-linecap: square"/>
   </g>
   <g id="patch_37">
    <path d="M 45 43.2 
L 324 43.2 
" style="fill: none; stroke: #000000; stroke-width: 0.8; stroke-linejoin: miter; stroke-linecap: square"/>
   </g>
  </g>
 </g>
 <defs>
  <clipPath id="ped8e43f8c7">
   <rect x="45" y="43.2" width="279" height="277.2"/>
  </clipPath>
 </defs>
</svg>
