<?xml version="1.0" encoding="utf-8" standalone="no"?>
<!DOCTYPE svg PUBLIC "-//W3C//DTD SVG 1.1//EN"
  "http://www.w3.org/Graphics/SVG/1.1/DTD/svg11.dtd">
<svg xmlns:xlink="http://www.w3.org/1999/xlink" width="720pt" height="720pt" viewBox="0 0 720 720" xmlns="http://www.w3.org/2000/svg" version="1.1">
 <metadata>
  <rdf:RDF xmlns:dc="http://purl.org/dc/elements/1.1/" xmlns:cc="http://creativecommons.org/ns#" xmlns:rdf="http://www.w3.org/1999/02/22-rdf-syntax-ns#">
   <cc:Work>
    <dc:type rdf:resource="http://purl.org/dc/dcmitype/StillImage"/>
    <dc:date>2022-12-01T01:17:23.800419</dc:date>
    <dc:format>image/svg+xml</dc:format>
    <dc:creator>
     <cc:Agent>
      <dc:title>Matplotlib v3.6.2, https://matplotlib.org/</dc:title>
     </cc:Agent>
    </dc:creator>
   </cc:Work>
  </rdf:RDF>
 </metadata>
 <defs>
  <style type="text/css">*{stroke-linejoin: round; stroke-linecap: butt}</style>
 </defs>
 <g id="figure_1">
  <g id="patch_1">
   <path d="M 0 720 
L 720 720 
L 720 0 
L 0 0 
L 0 720 
z
" style="fill: none"/>
  </g>
  <g id="axes_1">
   <g id="patch_2">
    <path d="M 90 640.8 
L 648 640.8 
L 648 86.4 
L 90 86.4 
L 90 640.8 
z
" style="fill: none"/>
   </g>
   <g id="patch_3">
    <path d="M 100.8 363.6 
L 115.2 363.6 
L 115.2 363.6 
L 100.8 363.6 
z
" clip-path="url(#p6c303d4b02)" style="fill: #00bfff; stroke: #0000ff; stroke-linejoin: miter"/>
   </g>
   <g id="patch_4">
    <path d="M 118.8 363.6 
L 133.2 363.6 
L 133.2 363.6 
L 118.8 363.6 
z
" clip-path="url(#p6c303d4b02)" style="fill: #00bfff; stroke: #0000ff; stroke-linejoin: miter"/>
   </g>
   <g id="patch_5">
    <path d="M 136.8 363.6 
L 151.2 363.6 
L 151.2 363.6 
L 136.8 363.6 
z
" clip-path="url(#p6c303d4b02)" style="fill: #00bfff; stroke: #0000ff; stroke-linejoin: miter"/>
   </g>
   <g id="patch_6">
    <path d="M 154.8 363.6 
L 169.2 363.6 
L 169.2 363.6 
L 154.8 363.6 
z
" clip-path="url(#p6c303d4b02)" style="fill: #00bfff; stroke: #0000ff; stroke-linejoin: miter"/>
   </g>
   <g id="patch_7">
    <path d="M 172.8 363.6 
L 187.2 363.6 
L 187.2 363.6 
L 172.8 363.6 
z
" clip-path="url(#p6c303d4b02)" style="fill: #00bfff; stroke: #0000ff; stroke-linejoin: miter"/>
   </g>
   <g id="patch_8">
    <path d="M 190.8 363.6 
L 205.2 363.6 
L 205.2 363.6 
L 190.8 363.6 
z
" clip-path="url(#p6c303d4b02)" style="fill: #00bfff; stroke: #0000ff; stroke-linejoin: miter"/>
   </g>
   <g id="patch_9">
    <path d="M 208.8 363.6 
L 223.2 363.6 
L 223.2 363.6 
L 208.8 363.6 
z
" clip-path="url(#p6c303d4b02)" style="fill: #00bfff; stroke: #0000ff; stroke-linejoin: miter"/>
   </g>
   <g id="patch_10">
    <path d="M 226.8 363.6 
L 241.2 363.6 
L 241.2 363.6 
L 226.8 363.6 
z
" clip-path="url(#p6c303d4b02)" style="fill: #00bfff; stroke: #0000ff; stroke-linejoin: miter"/>
   </g>
   <g id="patch_11">
    <path d="M 244.8 363.6 
L 259.2 363.6 
L 259.2 363.6 
L 244.8 363.6 
z
" clip-path="url(#p6c303d4b02)" style="fill: #00bfff; stroke: #0000ff; stroke-linejoin: miter"/>
   </g>
   <g id="patch_12">
    <path d="M 262.8 363.6 
L 277.2 363.6 
L 277.2 363.6 
L 262.8 363.6 
z
" clip-path="url(#p6c303d4b02)" style="fill: #00bfff; stroke: #0000ff; stroke-linejoin: miter"/>
   </g>
   <g id="patch_13">
    <path d="M 280.8 363.6 
L 295.2 363.6 
L 295.2 363.6 
L 280.8 363.6 
z
" clip-path="url(#p6c303d4b02)" style="fill: #00bfff; stroke: #0000ff; stroke-linejoin: miter"/>
   </g>
   <g id="patch_14">
    <path d="M 298.8 363.6 
L 313.2 363.6 
L 313.2 363.6 
L 298.8 363.6 
z
" clip-path="url(#p6c303d4b02)" style="fill: #00bfff; stroke: #0000ff; stroke-linejoin: miter"/>
   </g>
   <g id="patch_15">
    <path d="M 316.8 363.6 
L 331.2 363.6 
L 331.2 363.6 
L 316.8 363.6 
z
" clip-path="url(#p6c303d4b02)" style="fill: #00bfff; stroke: #0000ff; stroke-linejoin: miter"/>
   </g>
   <g id="patch_16">
    <path d="M 334.8 363.6 
L 349.2 363.6 
L 349.2 363.6 
L 334.8 363.6 
z
" clip-path="url(#p6c303d4b02)" style="fill: #00bfff; stroke: #0000ff; stroke-linejoin: miter"/>
   </g>
   <g id="patch_17">
    <path d="M 352.8 363.6 
L 367.2 363.6 
L 367.2 363.6 
L 352.8 363.6 
z
" clip-path="url(#p6c303d4b02)" style="fill: #00bfff; stroke: #0000ff; stroke-linejoin: miter"/>
   </g>
   <g id="patch_18">
    <path d="M 370.8 363.6 
L 385.2 363.6 
L 385.2 363.6 
L 370.8 363.6 
z
" clip-path="url(#p6c303d4b02)" style="fill: #00bfff; stroke: #0000ff; stroke-linejoin: miter"/>
   </g>
   <g id="patch_19">
    <path d="M 388.8 363.6 
L 403.2 363.6 
L 403.2 363.6 
L 388.8 363.6 
z
" clip-path="url(#p6c303d4b02)" style="fill: #00bfff; stroke: #0000ff; stroke-linejoin: miter"/>
   </g>
   <g id="patch_20">
    <path d="M 406.8 363.6 
L 421.2 363.6 
L 421.2 363.6 
L 406.8 363.6 
z
" clip-path="url(#p6c303d4b02)" style="fill: #00bfff; stroke: #0000ff; stroke-linejoin: miter"/>
   </g>
   <g id="patch_21">
    <path d="M 424.8 363.6 
L 439.2 363.6 
L 439.2 363.6 
L 424.8 363.6 
z
" clip-path="url(#p6c303d4b02)" style="fill: #00bfff; stroke: #0000ff; stroke-linejoin: miter"/>
   </g>
   <g id="patch_22">
    <path d="M 442.8 363.6 
L 457.2 363.6 
L 457.2 363.6 
L 442.8 363.6 
z
" clip-path="url(#p6c303d4b02)" style="fill: #00bfff; stroke: #0000ff; stroke-linejoin: miter"/>
   </g>
   <g id="patch_23">
    <path d="M 460.8 363.6 
L 475.2 363.6 
L 475.2 363.6 
L 460.8 363.6 
z
" clip-path="url(#p6c303d4b02)" style="fill: #00bfff; stroke: #0000ff; stroke-linejoin: miter"/>
   </g>
   <g id="patch_24">
    <path d="M 478.8 363.6 
L 493.2 363.6 
L 493.2 363.6 
L 478.8 363.6 
z
" clip-path="url(#p6c303d4b02)" style="fill: #00bfff; stroke: #0000ff; stroke-linejoin: miter"/>
   </g>
   <g id="patch_25">
    <path d="M 496.8 363.6 
L 511.2 363.6 
L 511.2 363.6 
L 496.8 363.6 
z
" clip-path="url(#p6c303d4b02)" style="fill: #00bfff; stroke: #0000ff; stroke-linejoin: miter"/>
   </g>
   <g id="patch_26">
    <path d="M 514.8 363.6 
L 529.2 363.6 
L 529.2 363.6 
L 514.8 363.6 
z
" clip-path="url(#p6c303d4b02)" style="fill: #00bfff; stroke: #0000ff; stroke-linejoin: miter"/>
   </g>
   <g id="patch_27">
    <path d="M 532.8 363.6 
L 547.2 363.6 
L 547.2 363.6 
L 532.8 363.6 
z
" clip-path="url(#p6c303d4b02)" style="fill: #00bfff; stroke: #0000ff; stroke-linejoin: miter"/>
   </g>
   <g id="patch_28">
    <path d="M 550.8 363.6 
L 565.2 363.6 
L 565.2 363.6 
L 550.8 363.6 
z
" clip-path="url(#p6c303d4b02)" style="fill: #00bfff; stroke: #0000ff; stroke-linejoin: miter"/>
   </g>
   <g id="patch_29">
    <path d="M 568.8 363.6 
L 583.2 363.6 
L 583.2 363.6 
L 568.8 363.6 
z
" clip-path="url(#p6c303d4b02)" style="fill: #00bfff; stroke: #0000ff; stroke-linejoin: miter"/>
   </g>
   <g id="patch_30">
    <path d="M 586.8 363.6 
L 601.2 363.6 
L 601.2 363.6 
L 586.8 363.6 
z
" clip-path="url(#p6c303d4b02)" style="fill: #00bfff; stroke: #0000ff; stroke-linejoin: miter"/>
   </g>
   <g id="patch_31">
    <path d="M 604.8 363.6 
L 619.2 363.6 
L 619.2 363.6 
L 604.8 363.6 
z
" clip-path="url(#p6c303d4b02)" style="fill: #00bfff; stroke: #0000ff; stroke-linejoin: miter"/>
   </g>
   <g id="patch_32">
    <path d="M 622.8 363.6 
L 637.2 363.6 
L 637.2 363.6 
L 622.8 363.6 
z
" clip-path="url(#p6c303d4b02)" style="fill: #00bfff; stroke: #0000ff; stroke-linejoin: miter"/>
   </g>
   <g id="patch_33">
    <path d="M 640.8 363.6 
L 655.2 363.6 
L 655.2 363.6 
L 640.8 363.6 
z
" clip-path="url(#p6c303d4b02)" style="fill: #00bfff; stroke: #0000ff; stroke-linejoin: miter"/>
   </g>
   <g id="matplotlib.axis_1">
    <g id="xtick_1">
     <g id="line2d_1">
      <path d="M 90 640.8 
L 90 86.4 
" clip-path="url(#p6c303d4b02)" style="fill: none; stroke: #b0b0b0; stroke-width: 0.8; stroke-linecap: square"/>
     </g>
     <g id="line2d_2">
      <defs>
       <path id="mcf8b035804" d="M 0 0 
L 0 3.5 
" style="stroke: #000000; stroke-width: 0.8"/>
      </defs>
      <g>
       <use xlink:href="#mcf8b035804" x="90" y="640.8" style="stroke: #000000; stroke-width: 0.8"/>
      </g>
     </g>
     <g id="text_1">
      <!-- 0 -->
      <g transform="translate(86.81875 655.398438) scale(0.1 -0.1)">
       <defs>
        <path id="DejaVuSans-30" d="M 2034 4250 
Q 1547 4250 1301 3770 
Q 1056 3291 1056 2328 
Q 1056 1369 1301 889 
Q 1547 409 2034 409 
Q 2525 409 2770 889 
Q 3016 1369 3016 2328 
Q 3016 3291 2770 3770 
Q 2525 4250 2034 4250 
z
M 2034 4750 
Q 2819 4750 3233 4129 
Q 3647 3509 3647 2328 
Q 3647 1150 3233 529 
Q 2819 -91 2034 -91 
Q 1250 -91 836 529 
Q 422 1150 422 2328 
Q 422 3509 836 4129 
Q 1250 4750 2034 4750 
z
" transform="scale(0.015625)"/>
       </defs>
       <use xlink:href="#DejaVuSans-30"/>
      </g>
     </g>
    </g>
    <g id="xtick_2">
     <g id="line2d_3">
      <path d="M 180 640.8 
L 180 86.4 
" clip-path="url(#p6c303d4b02)" style="fill: none; stroke: #b0b0b0; stroke-width: 0.8; stroke-linecap: square"/>
     </g>
     <g id="line2d_4">
      <g>
       <use xlink:href="#mcf8b035804" x="180" y="640.8" style="stroke: #000000; stroke-width: 0.8"/>
      </g>
     </g>
     <g id="text_2">
      <!-- 5 -->
      <g transform="translate(176.81875 655.398438) scale(0.1 -0.1)">
       <defs>
        <path id="DejaVuSans-35" d="M 691 4666 
L 3169 4666 
L 3169 4134 
L 1269 4134 
L 1269 2991 
Q 1406 3038 1543 3061 
Q 1681 3084 1819 3084 
Q 2600 3084 3056 2656 
Q 3513 2228 3513 1497 
Q 3513 744 3044 326 
Q 2575 -91 1722 -91 
Q 1428 -91 1123 -41 
Q 819 9 494 109 
L 494 744 
Q 775 591 1075 516 
Q 1375 441 1709 441 
Q 2250 441 2565 725 
Q 2881 1009 2881 1497 
Q 2881 1984 2565 2268 
Q 2250 2553 1709 2553 
Q 1456 2553 1204 2497 
Q 953 2441 691 2322 
L 691 4666 
z
" transform="scale(0.015625)"/>
       </defs>
       <use xlink:href="#DejaVuSans-35"/>
      </g>
     </g>
    </g>
    <g id="xtick_3">
     <g id="line2d_5">
      <path d="M 270 640.8 
L 270 86.4 
" clip-path="url(#p6c303d4b02)" style="fill: none; stroke: #b0b0b0; stroke-width: 0.8; stroke-linecap: square"/>
     </g>
     <g id="line2d_6">
      <g>
       <use xlink:href="#mcf8b035804" x="270" y="640.8" style="stroke: #000000; stroke-width: 0.8"/>
      </g>
     </g>
     <g id="text_3">
      <!-- 10 -->
      <g transform="translate(263.6375 655.398438) scale(0.1 -0.1)">
       <defs>
        <path id="DejaVuSans-31" d="M 794 531 
L 1825 531 
L 1825 4091 
L 703 3866 
L 703 4441 
L 1819 4666 
L 2450 4666 
L 2450 531 
L 3481 531 
L 3481 0 
L 794 0 
L 794 531 
z
" transform="scale(0.015625)"/>
       </defs>
       <use xlink:href="#DejaVuSans-31"/>
       <use xlink:href="#DejaVuSans-30" x="63.623047"/>
      </g>
     </g>
    </g>
    <g id="xtick_4">
     <g id="line2d_7">
      <path d="M 360 640.8 
L 360 86.4 
" clip-path="url(#p6c303d4b02)" style="fill: none; stroke: #b0b0b0; stroke-width: 0.8; stroke-linecap: square"/>
     </g>
     <g id="line2d_8">
      <g>
       <use xlink:href="#mcf8b035804" x="360" y="640.8" style="stroke: #000000; stroke-width: 0.8"/>
      </g>
     </g>
     <g id="text_4">
      <!-- 15 -->
      <g transform="translate(353.6375 655.398438) scale(0.1 -0.1)">
       <use xlink:href="#DejaVuSans-31"/>
       <use xlink:href="#DejaVuSans-35" x="63.623047"/>
      </g>
     </g>
    </g>
    <g id="xtick_5">
     <g id="line2d_9">
      <path d="M 450 640.8 
L 450 86.4 
" clip-path="url(#p6c303d4b02)" style="fill: none; stroke: #b0b0b0; stroke-width: 0.8; stroke-linecap: square"/>
     </g>
     <g id="line2d_10">
      <g>
       <use xlink:href="#mcf8b035804" x="450" y="640.8" style="stroke: #000000; stroke-width: 0.8"/>
      </g>
     </g>
     <g id="text_5">
      <!-- 20 -->
      <g transform="translate(443.6375 655.398438) scale(0.1 -0.1)">
       <defs>
        <path id="DejaVuSans-32" d="M 1228 531 
L 3431 531 
L 3431 0 
L 469 0 
L 469 531 
Q 828 903 1448 1529 
Q 2069 2156 2228 2338 
Q 2531 2678 2651 2914 
Q 2772 3150 2772 3378 
Q 2772 3750 2511 3984 
Q 2250 4219 1831 4219 
Q 1534 4219 1204 4116 
Q 875 4013 500 3803 
L 500 4441 
Q 881 4594 1212 4672 
Q 1544 4750 1819 4750 
Q 2544 4750 2975 4387 
Q 3406 4025 3406 3419 
Q 3406 3131 3298 2873 
Q 3191 2616 2906 2266 
Q 2828 2175 2409 1742 
Q 1991 1309 1228 531 
z
" transform="scale(0.015625)"/>
       </defs>
       <use xlink:href="#DejaVuSans-32"/>
       <use xlink:href="#DejaVuSans-30" x="63.623047"/>
      </g>
     </g>
    </g>
    <g id="xtick_6">
     <g id="line2d_11">
      <path d="M 540 640.8 
L 540 86.4 
" clip-path="url(#p6c303d4b02)" style="fill: none; stroke: #b0b0b0; stroke-width: 0.8; stroke-linecap: square"/>
     </g>
     <g id="line2d_12">
      <g>
       <use xlink:href="#mcf8b035804" x="540" y="640.8" style="stroke: #000000; stroke-width: 0.8"/>
      </g>
     </g>
     <g id="text_6">
      <!-- 25 -->
      <g transform="translate(533.6375 655.398438) scale(0.1 -0.1)">
       <use xlink:href="#DejaVuSans-32"/>
       <use xlink:href="#DejaVuSans-35" x="63.623047"/>
      </g>
     </g>
    </g>
    <g id="xtick_7">
     <g id="line2d_13">
      <path d="M 630 640.8 
L 630 86.4 
" clip-path="url(#p6c303d4b02)" style="fill: none; stroke: #b0b0b0; stroke-width: 0.8; stroke-linecap: square"/>
     </g>
     <g id="line2d_14">
      <g>
       <use xlink:href="#mcf8b035804" x="630" y="640.8" style="stroke: #000000; stroke-width: 0.8"/>
      </g>
     </g>
     <g id="text_7">
      <!-- 30 -->
      <g transform="translate(623.6375 655.398438) scale(0.1 -0.1)">
       <defs>
        <path id="DejaVuSans-33" d="M 2597 2516 
Q 3050 2419 3304 2112 
Q 3559 1806 3559 1356 
Q 3559 666 3084 287 
Q 2609 -91 1734 -91 
Q 1441 -91 1130 -33 
Q 819 25 488 141 
L 488 750 
Q 750 597 1062 519 
Q 1375 441 1716 441 
Q 2309 441 2620 675 
Q 2931 909 2931 1356 
Q 2931 1769 2642 2001 
Q 2353 2234 1838 2234 
L 1294 2234 
L 1294 2753 
L 1863 2753 
Q 2328 2753 2575 2939 
Q 2822 3125 2822 3475 
Q 2822 3834 2567 4026 
Q 2313 4219 1838 4219 
Q 1578 4219 1281 4162 
Q 984 4106 628 3988 
L 628 4550 
Q 988 4650 1302 4700 
Q 1616 4750 1894 4750 
Q 2613 4750 3031 4423 
Q 3450 4097 3450 3541 
Q 3450 3153 3228 2886 
Q 3006 2619 2597 2516 
z
" transform="scale(0.015625)"/>
       </defs>
       <use xlink:href="#DejaVuSans-33"/>
       <use xlink:href="#DejaVuSans-30" x="63.623047"/>
      </g>
     </g>
    </g>
    <g id="text_8">
     <!-- 日付 -->
     <g transform="translate(353 673.790625) scale(0.16 -0.16)">
      <defs>
       <path id="MS-Gothic-65e5" d="M 1825 -225 
L 1250 -225 
L 1250 4600 
L 5175 4600 
L 5175 -125 
L 4600 -125 
L 4600 225 
L 1825 225 
L 1825 -225 
z
M 4600 2700 
L 4600 4125 
L 1825 4125 
L 1825 2700 
L 4600 2700 
z
M 4600 700 
L 4600 2225 
L 1825 2225 
L 1825 700 
L 4600 700 
z
" transform="scale(0.015625)"/>
       <path id="MS-Gothic-4ed8" d="M 2175 4675 
Q 2025 4050 1725 3425 
Q 1975 3375 1775 3225 
L 1775 -475 
L 1275 -475 
L 1275 2625 
Q 1000 2225 725 1950 
L 325 2400 
Q 1400 3425 1725 5025 
L 2250 4825 
Q 2350 4725 2175 4675 
z
M 4500 3575 
L 4500 5000 
L 4975 5000 
Q 5175 4975 5000 4850 
L 5000 3575 
L 6025 3575 
L 6025 3100 
L 5000 3100 
L 5000 0 
Q 5000 -400 4600 -400 
L 3850 -400 
L 3725 75 
L 4400 75 
Q 4500 75 4500 175 
L 4500 3100 
L 2250 3100 
L 2250 3575 
L 4500 3575 
z
M 3050 2450 
Q 3475 1925 3825 1275 
L 3325 950 
Q 2975 1675 2575 2150 
L 3050 2450 
z
" transform="scale(0.015625)"/>
      </defs>
      <use xlink:href="#MS-Gothic-65e5"/>
      <use xlink:href="#MS-Gothic-4ed8" x="100"/>
     </g>
    </g>
   </g>
   <g id="matplotlib.axis_2">
    <g id="ytick_1">
     <g id="line2d_15">
      <path d="M 90 565.2 
L 648 565.2 
" clip-path="url(#p6c303d4b02)" style="fill: none; stroke: #b0b0b0; stroke-width: 0.8; stroke-linecap: square"/>
     </g>
     <g id="line2d_16">
      <defs>
       <path id="me26ef93241" d="M 0 0 
L -3.5 0 
" style="stroke: #000000; stroke-width: 0.8"/>
      </defs>
      <g>
       <use xlink:href="#me26ef93241" x="90" y="565.2" style="stroke: #000000; stroke-width: 0.8"/>
      </g>
     </g>
     <g id="text_9">
      <!-- −0.04 -->
      <g transform="translate(52.354687 568.999219) scale(0.1 -0.1)">
       <defs>
        <path id="DejaVuSans-2212" d="M 678 2272 
L 4684 2272 
L 4684 1741 
L 678 1741 
L 678 2272 
z
" transform="scale(0.015625)"/>
        <path id="DejaVuSans-2e" d="M 684 794 
L 1344 794 
L 1344 0 
L 684 0 
L 684 794 
z
" transform="scale(0.015625)"/>
        <path id="DejaVuSans-34" d="M 2419 4116 
L 825 1625 
L 2419 1625 
L 2419 4116 
z
M 2253 4666 
L 3047 4666 
L 3047 1625 
L 3713 1625 
L 3713 1100 
L 3047 1100 
L 3047 0 
L 2419 0 
L 2419 1100 
L 313 1100 
L 313 1709 
L 2253 4666 
z
" transform="scale(0.015625)"/>
       </defs>
       <use xlink:href="#DejaVuSans-2212"/>
       <use xlink:href="#DejaVuSans-30" x="83.789062"/>
       <use xlink:href="#DejaVuSans-2e" x="147.412109"/>
       <use xlink:href="#DejaVuSans-30" x="179.199219"/>
       <use xlink:href="#DejaVuSans-34" x="242.822266"/>
      </g>
     </g>
    </g>
    <g id="ytick_2">
     <g id="line2d_17">
      <path d="M 90 464.4 
L 648 464.4 
" clip-path="url(#p6c303d4b02)" style="fill: none; stroke: #b0b0b0; stroke-width: 0.8; stroke-linecap: square"/>
     </g>
     <g id="line2d_18">
      <g>
       <use xlink:href="#me26ef93241" x="90" y="464.4" style="stroke: #000000; stroke-width: 0.8"/>
      </g>
     </g>
     <g id="text_10">
      <!-- −0.02 -->
      <g transform="translate(52.354687 468.199219) scale(0.1 -0.1)">
       <use xlink:href="#DejaVuSans-2212"/>
       <use xlink:href="#DejaVuSans-30" x="83.789062"/>
       <use xlink:href="#DejaVuSans-2e" x="147.412109"/>
       <use xlink:href="#DejaVuSans-30" x="179.199219"/>
       <use xlink:href="#DejaVuSans-32" x="242.822266"/>
      </g>
     </g>
    </g>
    <g id="ytick_3">
     <g id="line2d_19">
      <path d="M 90 363.6 
L 648 363.6 
" clip-path="url(#p6c303d4b02)" style="fill: none; stroke: #b0b0b0; stroke-width: 0.8; stroke-linecap: square"/>
     </g>
     <g id="line2d_20">
      <g>
       <use xlink:href="#me26ef93241" x="90" y="363.6" style="stroke: #000000; stroke-width: 0.8"/>
      </g>
     </g>
     <g id="text_11">
      <!-- 0.00 -->
      <g transform="translate(60.734375 367.399219) scale(0.1 -0.1)">
       <use xlink:href="#DejaVuSans-30"/>
       <use xlink:href="#DejaVuSans-2e" x="63.623047"/>
       <use xlink:href="#DejaVuSans-30" x="95.410156"/>
       <use xlink:href="#DejaVuSans-30" x="159.033203"/>
      </g>
     </g>
    </g>
    <g id="ytick_4">
     <g id="line2d_21">
      <path d="M 90 262.8 
L 648 262.8 
" clip-path="url(#p6c303d4b02)" style="fill: none; stroke: #b0b0b0; stroke-width: 0.8; stroke-linecap: square"/>
     </g>
     <g id="line2d_22">
      <g>
       <use xlink:href="#me26ef93241" x="90" y="262.8" style="stroke: #000000; stroke-width: 0.8"/>
      </g>
     </g>
     <g id="text_12">
      <!-- 0.02 -->
      <g transform="translate(60.734375 266.599219) scale(0.1 -0.1)">
       <use xlink:href="#DejaVuSans-30"/>
       <use xlink:href="#DejaVuSans-2e" x="63.623047"/>
       <use xlink:href="#DejaVuSans-30" x="95.410156"/>
       <use xlink:href="#DejaVuSans-32" x="159.033203"/>
      </g>
     </g>
    </g>
    <g id="ytick_5">
     <g id="line2d_23">
      <path d="M 90 162 
L 648 162 
" clip-path="url(#p6c303d4b02)" style="fill: none; stroke: #b0b0b0; stroke-width: 0.8; stroke-linecap: square"/>
     </g>
     <g id="line2d_24">
      <g>
       <use xlink:href="#me26ef93241" x="90" y="162" style="stroke: #000000; stroke-width: 0.8"/>
      </g>
     </g>
     <g id="text_13">
      <!-- 0.04 -->
      <g transform="translate(60.734375 165.799219) scale(0.1 -0.1)">
       <use xlink:href="#DejaVuSans-30"/>
       <use xlink:href="#DejaVuSans-2e" x="63.623047"/>
       <use xlink:href="#DejaVuSans-30" x="95.410156"/>
       <use xlink:href="#DejaVuSans-34" x="159.033203"/>
      </g>
     </g>
    </g>
    <g id="text_14">
     <!-- 支出額(円) -->
     <g transform="translate(46.292187 403.6) rotate(-90) scale(0.16 -0.16)">
      <defs>
       <path id="MS-Gothic-652f" d="M 3725 875 
Q 4550 350 5975 100 
L 5775 -525 
Q 4125 -150 3275 525 
Q 2175 -175 600 -550 
L 375 25 
Q 1850 300 2850 875 
Q 2200 1600 1850 2475 
L 1075 2475 
L 1075 2950 
L 2900 2950 
L 2900 3850 
L 500 3850 
L 500 4325 
L 2900 4325 
L 2900 5125 
L 3450 5125 
Q 3700 5075 3475 4925 
L 3475 4325 
L 5900 4325 
L 5900 3850 
L 3475 3850 
L 3475 2950 
L 4625 2950 
L 4775 3100 
L 5200 2725 
L 5100 2675 
Q 4475 1525 3725 875 
z
M 2450 2475 
Q 2775 1725 3300 1225 
Q 3900 1725 4300 2475 
L 2450 2475 
z
" transform="scale(0.015625)"/>
       <path id="MS-Gothic-51fa" d="M 1425 4525 
Q 1625 4500 1450 4375 
L 1450 3025 
L 2925 3025 
L 2925 5025 
L 3400 5025 
Q 3600 5000 3425 4875 
L 3425 3025 
L 4875 3025 
L 4875 4500 
L 5350 4500 
Q 5550 4475 5375 4350 
L 5375 2325 
L 4875 2325 
L 4875 2550 
L 3425 2550 
L 3425 400 
L 5075 400 
L 5075 1925 
L 5550 1925 
Q 5750 1900 5575 1775 
L 5575 -350 
L 5075 -350 
L 5075 -75 
L 1200 -75 
L 1200 -425 
L 700 -425 
L 700 1950 
L 1175 1950 
Q 1375 1925 1200 1800 
L 1200 400 
L 2925 400 
L 2925 2550 
L 1450 2550 
L 1450 2275 
L 950 2275 
L 950 4525 
L 1425 4525 
z
" transform="scale(0.015625)"/>
       <path id="MS-Gothic-984d" d="M 850 1300 
L 425 1100 
L 250 1550 
Q 1150 1900 1625 2300 
Q 1400 2500 1200 2725 
Q 925 2425 550 2175 
L 325 2600 
Q 1175 3100 1400 3925 
L 1825 3850 
Q 2000 3825 1800 3700 
L 1675 3450 
L 2525 3450 
L 2600 3525 
L 2975 3225 
Q 3025 3125 2875 3125 
Q 2650 2750 2225 2325 
Q 2600 2025 3450 1750 
L 3250 1250 
Q 2325 1725 1950 2025 
Q 1550 1675 1100 1450 
L 2775 1450 
L 2775 -350 
L 2350 -350 
L 2350 -225 
L 1275 -225 
L 1275 -475 
L 850 -475 
L 850 1300 
z
M 3525 525 
L 3525 3850 
L 4275 3850 
L 4450 4475 
L 3425 4475 
L 3425 4950 
L 6000 4950 
L 6000 4475 
L 4950 4475 
L 4675 3850 
L 5800 3850 
L 5800 525 
L 3525 525 
z
M 6000 -575 
Q 5425 -375 4825 50 
L 5150 425 
Q 5700 75 6250 -100 
L 6000 -575 
z
M 1900 2575 
Q 2100 2775 2350 3150 
L 1550 3150 
L 1450 3000 
Q 1675 2750 1900 2575 
z
M 3000 -75 
Q 3700 75 4150 400 
L 4475 0 
Q 4600 -175 4350 -100 
Q 3900 -375 3225 -600 
L 3000 -75 
z
M 2125 4475 
L 3200 4475 
L 3200 3600 
L 2775 3600 
L 2775 4075 
L 950 4075 
L 950 3425 
L 525 3425 
L 525 4475 
L 1625 4475 
L 1625 5125 
L 2100 5125 
Q 2300 5100 2125 4975 
L 2125 4475 
z
M 3950 1500 
L 3950 925 
L 5375 925 
L 5375 1500 
L 3950 1500 
z
M 3950 2475 
L 3950 1900 
L 5375 1900 
L 5375 2475 
L 3950 2475 
z
M 3950 3450 
L 3950 2875 
L 5375 2875 
L 5375 3450 
L 3950 3450 
z
M 2350 1050 
L 1275 1050 
L 1275 175 
L 2350 175 
L 2350 1050 
z
" transform="scale(0.015625)"/>
       <path id="MS-Gothic-28" d="M 2725 -575 
Q 1475 650 1475 2300 
Q 1475 3950 2725 5175 
L 3000 4900 
Q 1850 3825 1850 2300 
Q 1850 775 3000 -300 
L 2725 -575 
z
" transform="scale(0.015625)"/>
       <path id="MS-Gothic-5186" d="M 5575 75 
Q 5575 -325 5175 -325 
L 4525 -325 
L 4375 225 
L 4900 225 
Q 5000 225 5000 325 
L 5000 2000 
L 1325 2000 
L 1325 -350 
L 750 -350 
L 750 4725 
L 5575 4725 
L 5575 75 
z
M 5000 4250 
L 3400 4250 
L 3400 2475 
L 5000 2475 
L 5000 4250 
z
M 1325 4250 
L 1325 2475 
L 2900 2475 
L 2900 4250 
L 1325 4250 
z
" transform="scale(0.015625)"/>
       <path id="MS-Gothic-29" d="M 1700 2300 
Q 1700 650 450 -575 
L 175 -300 
Q 1325 775 1325 2300 
Q 1325 3825 175 4900 
L 450 5175 
Q 1700 3950 1700 2300 
z
" transform="scale(0.015625)"/>
      </defs>
      <use xlink:href="#MS-Gothic-652f"/>
      <use xlink:href="#MS-Gothic-51fa" x="100"/>
      <use xlink:href="#MS-Gothic-984d" x="200"/>
      <use xlink:href="#MS-Gothic-28" x="300"/>
      <use xlink:href="#MS-Gothic-5186" x="350"/>
      <use xlink:href="#MS-Gothic-29" x="450"/>
     </g>
    </g>
   </g>
   <g id="patch_34">
    <path d="M 90 640.8 
L 90 86.4 
" style="fill: none; stroke: #000000; stroke-width: 0.8; stroke-linejoin: miter; stroke-linecap: square"/>
   </g>
   <g id="patch_35">
    <path d="M 648 640.8 
L 648 86.4 
" style="fill: none; stroke: #000000; stroke-width: 0.8; stroke-linejoin: miter; stroke-linecap: square"/>
   </g>
   <g id="patch_36">
    <path d="M 90 640.8 
L 648 640.8 
" style="fill: none; stroke: #000000; stroke-width: 0.8; stroke-linejoin: miter; stroke-linecap: square"/>
   </g>
   <g id="patch_37">
    <path d="M 90 86.4 
L 648 86.4 
" style="fill: none; stroke: #000000; stroke-width: 0.8; stroke-linejoin: miter; stroke-linecap: square"/>
   </g>
  </g>
 </g>
 <defs>
  <clipPath id="p6c303d4b02">
   <rect x="90" y="86.4" width="558" height="554.4"/>
  </clipPath>
 </defs>
</svg>
