<?xml version="1.0" encoding="utf-8" standalone="no"?>
<!DOCTYPE svg PUBLIC "-//W3C//DTD SVG 1.1//EN"
  "http://www.w3.org/Graphics/SVG/1.1/DTD/svg11.dtd">
<svg xmlns:xlink="http://www.w3.org/1999/xlink" width="720pt" height="720pt" viewBox="0 0 720 720" xmlns="http://www.w3.org/2000/svg" version="1.1">
 <metadata>
  <rdf:RDF xmlns:dc="http://purl.org/dc/elements/1.1/" xmlns:cc="http://creativecommons.org/ns#" xmlns:rdf="http://www.w3.org/1999/02/22-rdf-syntax-ns#">
   <cc:Work>
    <dc:type rdf:resource="http://purl.org/dc/dcmitype/StillImage"/>
    <dc:date>2022-12-05T21:18:18.397284</dc:date>
    <dc:format>image/svg+xml</dc:format>
    <dc:creator>
     <cc:Agent>
      <dc:title>Matplotlib v3.5.3, https://matplotlib.org/</dc:title>
     </cc:Agent>
    </dc:creator>
   </cc:Work>
  </rdf:RDF>
 </metadata>
 <defs>
  <style type="text/css">*{stroke-linejoin: round; stroke-linecap: butt}</style>
 </defs>
 <g id="figure_1">
  <g id="patch_1">
   <path d="M 0 720 
L 720 720 
L 720 0 
L 0 0 
L 0 720 
z
" style="fill: none"/>
  </g>
  <g id="axes_1">
   <g id="patch_2">
    <path d="M 590.76 363.6 
C 590.76 313.372261 573.695432 264.604528 542.378949 225.3349 
C 511.062465 186.065273 467.314664 158.576708 418.346239 147.399986 
L 369 363.6 
L 590.76 363.6 
z
" style="fill: #1f77b4"/>
   </g>
   <g id="patch_3">
    <path d="M 418.346239 147.399986 
C 402.157569 143.705027 385.604987 141.84 368.999995 141.84 
C 352.395003 141.84 335.842421 143.705029 319.65375 147.399988 
L 369 363.6 
L 418.346239 147.399986 
z
" style="fill: #ff7f0e"/>
   </g>
   <g id="patch_4">
    <path d="M 319.65375 147.399988 
C 292.622581 153.569677 266.986703 164.754497 244.078138 180.373294 
C 221.169572 195.992091 201.39208 215.769584 185.773285 238.67815 
L 369 363.6 
L 319.65375 147.399988 
z
" style="fill: #2ca02c"/>
   </g>
   <g id="patch_5">
    <path d="M 185.773285 238.67815 
C 166.218141 267.360282 153.668284 300.237408 149.137187 334.654518 
C 144.606089 369.071629 148.219095 404.076636 159.684435 436.84269 
C 171.149774 469.608745 190.150279 499.229433 215.151552 523.312719 
C 240.152825 547.396005 270.463252 565.275668 303.635096 575.507827 
C 336.806941 585.739985 371.922564 588.041584 406.146183 582.226757 
C 440.369802 576.411929 472.754683 562.641532 500.685566 542.027602 
C 528.616449 521.413672 551.320676 494.526456 566.964755 463.537247 
C 582.608834 432.548037 590.76 398.314094 590.76 363.6 
L 369 363.6 
L 185.773285 238.67815 
z
" style="fill: #d62728"/>
   </g>
   <g id="matplotlib.axis_1"/>
   <g id="matplotlib.axis_2"/>
   <g id="text_1">
    <!-- 食費 -->
    <g transform="translate(559.716843 214.338078)scale(0.1 -0.1)">
     <defs>
      <path id="HiraginoSans-W4-98df" d="M 2726 1498 
C 2963 1094 3200 813 3558 525 
C 4173 26 4870 -294 5811 -512 
C 5875 -339 5946 -198 6067 -13 
C 5478 70 4928 243 4403 512 
C 4851 813 5210 1101 5632 1478 
L 5184 1747 
C 5082 1638 5050 1600 4973 1523 
C 4960 1638 4960 1779 4960 1984 
L 4960 3149 
C 4960 3315 4960 3424 4973 3552 
C 5331 3354 5549 3245 5901 3104 
C 5978 3296 6042 3418 6170 3597 
C 5632 3763 5062 4026 4557 4346 
C 4070 4653 3744 4934 3411 5325 
L 2880 5325 
C 2611 4979 2310 4704 1882 4410 
C 1357 4051 813 3782 211 3590 
C 346 3424 378 3360 467 3110 
C 838 3264 1005 3341 1357 3533 
C 1363 3430 1370 3232 1370 3066 
L 1370 96 
C 986 45 704 13 563 13 
C 550 13 531 13 512 13 
L 614 -518 
C 730 -493 781 -480 870 -461 
C 2234 -205 2573 -128 3302 77 
L 3309 512 
C 2746 358 2432 288 1850 179 
L 1850 1498 
L 2726 1498 
z
M 4390 1498 
C 4621 1498 4819 1491 4934 1485 
C 4621 1190 4390 1011 3994 755 
C 3674 973 3437 1197 3245 1498 
L 4390 1498 
z
M 3366 3699 
L 3366 3904 
C 3366 4128 3373 4230 3398 4365 
L 2867 4365 
C 2893 4243 2906 4128 2906 3904 
L 2906 3699 
L 1971 3699 
C 1837 3699 1779 3699 1651 3706 
C 2298 4096 2746 4474 3149 4947 
C 3546 4493 3968 4154 4710 3706 
C 4550 3699 4493 3699 4346 3699 
L 3366 3699 
z
M 1850 3290 
L 4493 3290 
L 4493 2822 
L 1850 2822 
L 1850 3290 
z
M 1850 2426 
L 4493 2426 
L 4493 1901 
L 1850 1901 
L 1850 2426 
z
" transform="scale(0.015625)"/>
      <path id="HiraginoSans-W4-8cbb" d="M 4147 3597 
L 4147 3942 
L 5050 3942 
C 5286 3942 5478 3936 5664 3923 
C 5645 4038 5645 4083 5645 4307 
L 5645 4531 
C 5645 4742 5651 4845 5670 4973 
C 5536 4954 5325 4941 5056 4941 
L 4147 4941 
L 4147 4992 
C 4147 5152 4154 5235 4179 5370 
L 3680 5370 
C 3706 5242 3712 5158 3712 4998 
L 3712 4941 
L 2790 4941 
C 2797 5152 2803 5286 2816 5370 
L 2323 5370 
C 2342 5210 2349 5139 2349 4941 
L 1235 4941 
C 922 4941 768 4947 614 4973 
L 614 4550 
C 787 4576 973 4582 1235 4582 
L 2336 4582 
C 2330 4454 2323 4397 2310 4269 
L 1472 4269 
C 1197 4269 1043 4275 902 4288 
C 826 3878 723 3590 544 3238 
C 704 3251 896 3258 1101 3258 
L 1914 3258 
C 1581 2931 1152 2746 275 2560 
C 390 2426 448 2330 512 2170 
C 832 2272 947 2310 1158 2394 
L 1158 1043 
C 1158 742 1146 531 1133 397 
C 1306 410 1536 416 1837 416 
L 4646 416 
C 4941 416 5184 410 5350 397 
C 5331 550 5325 749 5325 1062 
L 5325 2106 
C 5325 2323 5325 2400 5331 2630 
C 5376 2630 5414 2630 5434 2630 
C 5626 2630 5747 2675 5824 2765 
C 5888 2848 5920 2963 5971 3315 
C 5997 3475 5997 3475 6022 3616 
C 5882 3603 5760 3597 5427 3597 
L 4147 3597 
z
M 4685 2784 
L 1939 2784 
C 2157 2931 2285 3053 2419 3258 
L 3712 3258 
C 3712 3091 3706 3014 3686 2906 
L 4173 2906 
C 4154 3008 4147 3098 4147 3258 
L 5517 3258 
C 5472 2976 5466 2957 5344 2957 
C 5248 2957 5075 2982 4941 3014 
C 4979 2880 4986 2867 4998 2784 
L 4685 2784 
z
M 2259 3942 
C 2221 3795 2202 3731 2144 3597 
L 1158 3597 
C 1197 3693 1229 3770 1286 3942 
L 2259 3942 
z
M 3712 3942 
L 3712 3597 
L 2598 3597 
C 2643 3731 2662 3802 2694 3942 
L 3712 3942 
z
M 3712 4582 
L 3712 4269 
L 2746 4269 
C 2758 4384 2765 4435 2771 4582 
L 3712 4582 
z
M 4147 4582 
L 5184 4582 
L 5184 4269 
L 4147 4269 
L 4147 4582 
z
M 1626 2432 
L 4858 2432 
L 4858 2106 
L 1626 2106 
L 1626 2432 
z
M 1626 1773 
L 4858 1773 
L 4858 1446 
L 1626 1446 
L 1626 1773 
z
M 1626 1114 
L 4858 1114 
L 4858 774 
L 1626 774 
L 1626 1114 
z
M 2246 410 
C 1638 83 1190 -58 371 -166 
C 499 -294 576 -403 653 -576 
C 1523 -403 1920 -256 2592 128 
L 2246 410 
z
M 3853 128 
C 4256 -102 4454 -192 4870 -333 
C 5229 -448 5434 -499 5850 -576 
C 5946 -384 5978 -333 6138 -147 
C 5696 -102 5485 -64 5146 26 
C 4781 122 4589 198 4218 403 
L 3853 128 
z
" transform="scale(0.015625)"/>
     </defs>
     <use xlink:href="#HiraginoSans-W4-98df"/>
     <use xlink:href="#HiraginoSans-W4-8cbb" x="99.999985"/>
    </g>
   </g>
   <g id="text_2">
    <!-- 交通費 -->
    <g transform="translate(338.999994 122.493687)scale(0.1 -0.1)">
     <defs>
      <path id="HiraginoSans-W4-4ea4" d="M 4000 2829 
C 3866 2432 3578 1984 3206 1568 
C 2822 1978 2579 2349 2387 2822 
L 1939 2573 
C 2157 2195 2266 2003 2266 2003 
C 2445 1715 2598 1510 2861 1235 
C 2208 666 1389 256 384 -6 
C 531 -192 589 -294 653 -486 
C 1715 -147 2509 282 3200 896 
C 3898 269 4653 -128 5830 -474 
C 5907 -243 5946 -173 6093 32 
C 5414 198 4954 365 4448 634 
C 4109 813 3802 1024 3546 1242 
C 3846 1568 4070 1888 4467 2560 
L 4000 2829 
z
M 2906 4557 
L 1165 4557 
C 832 4557 614 4570 422 4602 
L 422 4064 
C 608 4090 800 4102 1165 4102 
L 5248 4102 
C 5587 4102 5850 4090 5997 4064 
L 5997 4602 
C 5811 4570 5587 4557 5248 4557 
L 3405 4557 
L 3405 4826 
C 3405 5050 3418 5222 3450 5344 
L 2867 5344 
C 2893 5184 2906 5018 2906 4826 
L 2906 4557 
z
M 2086 3917 
C 1843 3520 1664 3290 1363 3014 
C 1069 2739 813 2554 435 2342 
C 602 2208 691 2112 794 1952 
C 1152 2195 1370 2368 1658 2643 
C 2010 2963 2202 3206 2515 3680 
L 2086 3917 
z
M 3814 3674 
C 4134 3245 4320 3034 4627 2765 
C 4954 2477 5197 2304 5683 2016 
C 5779 2195 5869 2317 6003 2451 
C 5523 2694 5280 2848 4979 3091 
C 4666 3347 4493 3533 4211 3930 
L 3814 3674 
z
" transform="scale(0.015625)"/>
      <path id="HiraginoSans-W4-901a" d="M 2810 3942 
C 2502 3942 2298 3949 2112 3974 
C 2131 3795 2138 3629 2138 3245 
L 2138 1222 
C 2138 902 2125 717 2099 544 
L 2624 544 
C 2592 698 2586 877 2586 1222 
L 2586 1658 
L 3699 1658 
L 3699 1306 
C 3699 986 3686 768 3661 608 
L 4166 608 
C 4141 787 4134 966 4134 1306 
L 4134 1658 
L 5376 1658 
L 5376 1152 
C 5376 1005 5350 973 5229 973 
C 5030 973 4915 986 4698 1018 
C 4762 870 4781 768 4806 576 
C 5075 570 5075 570 5158 570 
C 5722 570 5824 653 5824 1126 
L 5824 3200 
C 5824 3571 5830 3802 5850 3974 
C 5702 3949 5510 3942 5165 3942 
L 4422 3942 
C 4851 4179 5158 4390 5613 4762 
C 5683 4819 5715 4838 5773 4883 
L 5562 5158 
C 5446 5133 5280 5126 4896 5126 
L 2707 5126 
C 2362 5126 2189 5133 2010 5165 
L 2010 4691 
C 2195 4717 2355 4723 2656 4723 
L 4922 4723 
C 4595 4454 4403 4320 4026 4102 
C 3654 4371 3494 4480 3187 4666 
L 2835 4429 
C 3085 4294 3386 4115 3616 3942 
L 2810 3942 
z
M 4134 3558 
L 5376 3558 
L 5376 2995 
L 4134 2995 
L 4134 3558 
z
M 3699 3558 
L 3699 2995 
L 2586 2995 
L 2586 3558 
L 3699 3558 
z
M 2586 2611 
L 3699 2611 
L 3699 2042 
L 2586 2042 
L 2586 2611 
z
M 5376 2042 
L 4134 2042 
L 4134 2611 
L 5376 2611 
L 5376 2042 
z
M 301 4915 
C 736 4512 998 4211 1325 3738 
L 1709 4096 
C 1382 4531 1101 4832 659 5235 
L 301 4915 
z
M 275 2323 
C 410 2349 518 2355 691 2355 
L 1062 2355 
L 1062 870 
C 742 538 403 269 173 160 
L 429 -346 
C 512 -269 531 -250 602 -192 
C 698 -109 710 -96 832 13 
C 1018 192 1056 224 1267 461 
C 1478 186 1606 64 1818 -51 
C 2214 -269 2643 -326 3885 -326 
C 4493 -326 5325 -307 6003 -282 
C 6035 -83 6086 90 6163 275 
C 5357 179 4531 134 3507 134 
C 2739 134 2304 192 2048 333 
C 1779 480 1651 608 1523 870 
L 1523 2150 
C 1523 2477 1530 2630 1549 2835 
C 1402 2810 1261 2803 1069 2803 
L 736 2803 
C 531 2803 422 2810 275 2835 
L 275 2323 
z
" transform="scale(0.015625)"/>
     </defs>
     <use xlink:href="#HiraginoSans-W4-4ea4"/>
     <use xlink:href="#HiraginoSans-W4-901a" x="99.999985"/>
     <use xlink:href="#HiraginoSans-W4-8cbb" x="199.999969"/>
    </g>
   </g>
   <g id="text_3">
    <!-- 趣味 -->
    <g transform="translate(211.585951 164.880311)scale(0.1 -0.1)">
     <defs>
      <path id="HiraginoSans-W4-8da3" d="M 1370 902 
C 1184 1088 1069 1248 966 1427 
C 979 1562 986 1645 992 1760 
C 1018 2221 1018 2221 1037 2355 
L 602 2406 
C 614 2304 614 2246 614 2138 
C 614 1670 550 1094 442 621 
C 371 301 301 115 160 -154 
C 333 -243 429 -314 550 -429 
C 723 -26 813 307 902 858 
C 1139 518 1414 256 1741 58 
C 2291 -282 2765 -358 4230 -358 
C 4979 -358 5600 -346 6138 -314 
C 6170 -115 6214 32 6298 211 
C 5581 134 4934 96 4205 96 
C 2810 96 2278 192 1779 544 
L 1779 1709 
L 2003 1709 
C 2214 1709 2336 1702 2490 1677 
L 2490 2131 
C 2342 2106 2214 2099 2010 2099 
L 1779 2099 
L 1779 2861 
L 2003 2861 
C 2234 2861 2381 2848 2509 2822 
L 2509 3315 
C 2394 3290 2253 3277 2003 3277 
L 1766 3277 
L 1766 4006 
L 1862 4006 
C 2118 4006 2246 4000 2406 3974 
L 2406 4448 
C 2266 4422 2176 4416 1862 4416 
L 1766 4416 
L 1766 4653 
C 1766 4947 1773 5107 1798 5267 
L 1293 5267 
C 1325 5094 1331 4954 1331 4653 
L 1331 4416 
L 1062 4416 
C 762 4416 646 4422 506 4448 
L 506 3974 
C 691 4000 813 4006 1062 4006 
L 1331 4006 
L 1331 3277 
L 966 3277 
C 666 3277 512 3283 358 3315 
L 358 2822 
C 525 2854 672 2861 966 2861 
L 1370 2861 
L 1370 902 
z
M 2682 1222 
C 2419 1171 2291 1152 2176 1146 
L 2285 691 
C 2374 723 2445 749 2522 768 
C 3328 986 3430 1011 3763 1126 
L 3763 870 
C 3763 589 3757 422 3731 275 
L 4211 275 
C 4192 429 4179 627 4179 877 
L 4179 3629 
L 5523 3629 
C 5434 3008 5331 2592 5165 2189 
C 4979 2618 4877 2995 4781 3597 
L 4397 3443 
C 4544 2714 4704 2227 4947 1741 
C 4710 1350 4563 1171 4205 858 
C 4352 749 4422 678 4538 512 
C 4787 781 4998 1050 5178 1338 
C 5395 1005 5574 787 5907 474 
C 6016 646 6067 710 6221 864 
C 5843 1158 5645 1370 5402 1747 
C 5645 2240 5824 2842 5933 3533 
C 5952 3642 5978 3814 6016 4038 
C 5869 4019 5728 4013 5453 4013 
L 4179 4013 
L 4179 4640 
L 5523 4640 
C 5773 4640 5971 4627 6157 4602 
L 6157 5082 
C 5971 5056 5798 5043 5523 5043 
L 2918 5043 
C 2637 5043 2464 5056 2278 5082 
L 2278 4608 
C 2413 4627 2477 4634 2682 4640 
L 2682 1222 
z
M 3098 4640 
L 3763 4640 
L 3763 3808 
L 3098 3808 
L 3098 4640 
z
M 3098 3430 
L 3763 3430 
L 3763 2650 
L 3098 2650 
L 3098 3430 
z
M 3098 2272 
L 3763 2272 
L 3763 1517 
C 3379 1395 3379 1395 3098 1325 
L 3098 2272 
z
" transform="scale(0.015625)"/>
      <path id="HiraginoSans-W4-5473" d="M 4314 4333 
L 4314 4806 
C 4314 5043 4320 5152 4346 5312 
L 3821 5312 
C 3840 5165 3853 5043 3853 4800 
L 3853 4333 
L 3187 4333 
C 2912 4333 2707 4346 2515 4365 
L 2515 3859 
C 2720 3885 2918 3891 3187 3891 
L 3853 3891 
L 3853 2874 
L 2886 2874 
C 2592 2874 2458 2880 2298 2906 
L 2298 2394 
C 2445 2419 2611 2426 2880 2426 
L 3699 2426 
C 3482 2010 3264 1696 2963 1350 
C 2573 902 2214 602 1677 275 
C 1837 147 1926 45 2035 -102 
C 2893 480 3462 1133 3878 2022 
C 3853 1658 3853 1587 3853 1331 
L 3853 173 
C 3853 -96 3840 -301 3814 -499 
L 4346 -499 
C 4320 -288 4314 -102 4314 173 
L 4314 1331 
C 4314 1619 4307 1786 4288 2022 
C 4550 1446 4666 1254 4966 902 
C 5248 576 5530 320 5978 -26 
C 6061 160 6144 282 6278 454 
C 5408 992 4896 1536 4442 2426 
L 5350 2426 
C 5670 2426 5907 2413 6086 2387 
L 6086 2912 
C 5888 2886 5683 2874 5344 2874 
L 4314 2874 
L 4314 3891 
L 5114 3891 
C 5408 3891 5587 3885 5811 3853 
L 5811 4371 
C 5626 4346 5440 4333 5126 4333 
L 4314 4333 
z
M 947 422 
L 947 1101 
L 1696 1101 
L 1696 774 
L 2163 774 
C 2150 960 2144 1178 2144 1478 
L 2144 4198 
C 2144 4518 2144 4710 2157 4806 
C 2003 4787 1862 4781 1619 4781 
L 998 4781 
C 755 4781 608 4787 461 4806 
C 474 4646 486 4442 486 4173 
L 486 1133 
C 486 838 474 614 448 422 
L 947 422 
z
M 947 4326 
L 1696 4326 
L 1696 1536 
L 947 1536 
L 947 4326 
z
" transform="scale(0.015625)"/>
     </defs>
     <use xlink:href="#HiraginoSans-W4-8da3"/>
     <use xlink:href="#HiraginoSans-W4-5473" x="99.999985"/>
    </g>
   </g>
   <g id="text_4">
    <!-- 学費 -->
    <g transform="translate(277.098606 599.528297)scale(0.1 -0.1)">
     <defs>
      <path id="HiraginoSans-W4-5b66" d="M 1229 4307 
C 864 4307 749 4314 486 4333 
C 506 4179 512 4045 512 3808 
L 512 3296 
C 512 3130 499 2982 480 2835 
L 986 2835 
L 986 3891 
L 5395 3891 
L 5395 2835 
L 5901 2835 
C 5882 2989 5869 3136 5869 3296 
L 5869 3808 
C 5869 4045 5875 4179 5894 4333 
C 5658 4314 5530 4307 5139 4307 
L 4704 4307 
C 4896 4538 5056 4768 5280 5139 
L 4794 5312 
C 4614 4902 4461 4646 4173 4307 
L 3520 4307 
C 3386 4678 3283 4890 3046 5325 
L 2573 5197 
C 2778 4883 2912 4602 3014 4307 
L 2157 4307 
C 1926 4710 1792 4915 1523 5242 
L 1069 5101 
C 1350 4774 1466 4608 1632 4307 
L 1229 4307 
z
M 3462 1338 
L 5299 1338 
C 5600 1338 5837 1325 6010 1299 
L 6010 1818 
C 5811 1792 5600 1779 5299 1779 
L 3462 1779 
L 3462 1926 
C 4038 2227 4429 2490 4877 2861 
C 5011 2976 5011 2976 5101 3046 
L 4826 3341 
C 4710 3322 4582 3315 4346 3315 
L 2093 3315 
C 1856 3315 1638 3328 1466 3347 
L 1466 2861 
C 1638 2880 1856 2893 2080 2893 
L 4262 2893 
C 3878 2598 3616 2432 3219 2240 
L 2950 2240 
C 2963 2112 2970 1997 2970 1869 
L 2970 1779 
L 1101 1779 
C 819 1779 602 1792 403 1818 
L 403 1299 
C 595 1325 806 1338 1101 1338 
L 2970 1338 
L 2970 147 
C 2970 19 2931 0 2643 0 
C 2400 0 2157 19 1811 64 
C 1888 -102 1920 -192 1965 -422 
C 2189 -442 2509 -454 2675 -454 
C 3334 -454 3462 -371 3462 58 
L 3462 1338 
z
" transform="scale(0.015625)"/>
     </defs>
     <use xlink:href="#HiraginoSans-W4-5b66"/>
     <use xlink:href="#HiraginoSans-W4-8cbb" x="99.999985"/>
    </g>
   </g>
  </g>
 </g>
</svg>
