<?xml version="1.0" encoding="utf-8" standalone="no"?>
<!DOCTYPE svg PUBLIC "-//W3C//DTD SVG 1.1//EN"
  "http://www.w3.org/Graphics/SVG/1.1/DTD/svg11.dtd">
<svg xmlns:xlink="http://www.w3.org/1999/xlink" width="360pt" height="360pt" viewBox="0 0 360 360" xmlns="http://www.w3.org/2000/svg" version="1.1">
 <metadata>
  <rdf:RDF xmlns:dc="http://purl.org/dc/elements/1.1/" xmlns:cc="http://creativecommons.org/ns#" xmlns:rdf="http://www.w3.org/1999/02/22-rdf-syntax-ns#">
   <cc:Work>
    <dc:type rdf:resource="http://purl.org/dc/dcmitype/StillImage"/>
    <dc:date>2022-12-07T01:02:16.404760</dc:date>
    <dc:format>image/svg+xml</dc:format>
    <dc:creator>
     <cc:Agent>
      <dc:title>Matplotlib v3.6.2, https://matplotlib.org/</dc:title>
     </cc:Agent>
    </dc:creator>
   </cc:Work>
  </rdf:RDF>
 </metadata>
 <defs>
  <style type="text/css">*{stroke-linejoin: round; stroke-linecap: butt}</style>
 </defs>
 <g id="figure_1">
  <g id="patch_1">
   <path d="M 0 360 
L 360 360 
L 360 0 
L 0 0 
L 0 360 
z
" style="fill: none"/>
  </g>
  <g id="axes_1">
   <g id="patch_2">
    <path d="M 295.38 181.8 
C 295.38 156.83436 286.948139 132.585811 271.45861 113.00629 
C 255.969081 93.426769 234.311698 79.641044 210.016101 73.895862 
C 185.720504 68.15068 160.182382 70.776079 137.563841 81.344182 
C 114.945301 91.912285 96.545692 109.815994 85.363712 132.13743 
L 184.5 181.8 
L 295.38 181.8 
z
" style="fill: #1f77b4"/>
   </g>
   <g id="patch_3">
    <path d="M 85.363712 132.13743 
C 82.648811 137.556909 80.382875 143.189897 78.588691 148.979746 
C 76.794508 154.769595 75.478112 160.69683 74.652742 166.701846 
L 184.5 181.8 
L 85.363712 132.13743 
z
" style="fill: #ff7f0e"/>
   </g>
   <g id="patch_4">
    <path d="M 74.652742 166.701846 
C 73.27576 176.720135 73.27576 186.879872 74.652743 196.898162 
C 76.029725 206.916452 78.77079 216.699438 82.799613 225.974717 
L 184.5 181.8 
L 74.652742 166.701846 
z
" style="fill: #2ca02c"/>
   </g>
   <g id="patch_5">
    <path d="M 82.799613 225.974717 
C 92.952723 249.349519 110.860553 268.524121 133.487991 280.248714 
C 156.115429 291.973307 182.107594 295.545848 207.059203 290.360844 
C 232.010811 285.17584 254.427815 271.543758 270.510866 251.775033 
C 286.593918 232.006308 295.379999 207.284648 295.38 181.800005 
L 184.5 181.8 
L 82.799613 225.974717 
z
" style="fill: #d62728"/>
   </g>
   <g id="matplotlib.axis_1"/>
   <g id="matplotlib.axis_2"/>
   <g id="text_1">
    <!-- 食費 -->
    <g transform="translate(212.567711 66.445292) scale(0.1 -0.1)">
     <defs>
      <path id="MS-Gothic-98df" d="M 3475 -100 
Q 2225 -325 975 -500 
Q 950 -700 850 -575 
L 700 75 
L 1525 125 
L 1525 3350 
Q 1000 3075 525 2900 
L 325 3425 
Q 2275 4025 2850 5200 
L 3525 5125 
Q 3625 5025 3450 5000 
L 3450 4925 
Q 4325 3950 6075 3525 
L 5775 3000 
Q 5450 3050 4775 3350 
L 4775 1400 
L 5100 1725 
L 5550 1275 
Q 5575 1150 5425 1200 
L 4225 425 
Q 4700 100 5950 -25 
L 5725 -550 
Q 3550 -350 2950 1300 
L 2025 1300 
L 2025 175 
L 3475 350 
L 3475 -100 
z
M 3425 1300 
Q 3525 1025 3875 675 
L 4650 1300 
L 3425 1300 
z
M 4275 1700 
L 4275 2150 
L 2025 2150 
L 2025 1700 
L 4275 1700 
z
M 2025 2550 
L 4275 2550 
L 4275 3000 
L 2025 3000 
L 2025 2550 
z
M 3125 4650 
Q 2575 3925 1625 3400 
L 2925 3400 
L 2925 4050 
L 3400 4050 
Q 3600 4025 3425 3900 
L 3425 3400 
L 4675 3400 
Q 3925 3750 3125 4650 
z
" transform="scale(0.015625)"/>
      <path id="MS-Gothic-8cbb" d="M 3900 325 
L 2450 325 
L 2775 0 
Q 2825 -100 2625 -100 
Q 1675 -575 775 -650 
L 575 -150 
Q 1750 25 2275 325 
L 1450 325 
L 1450 2175 
Q 1050 2000 525 1925 
L 425 2375 
Q 1650 2500 2100 3175 
L 1275 3175 
L 1225 2975 
L 775 3050 
L 1050 4100 
L 2300 4100 
L 2300 4500 
L 750 4500 
L 750 4800 
L 2300 4800 
L 2300 5225 
L 2700 5225 
Q 2900 5200 2725 5075 
L 2725 4800 
L 3700 4800 
L 3700 5225 
L 4100 5225 
Q 4300 5200 4125 5075 
L 4125 4800 
L 5400 4800 
L 5400 3800 
L 4125 3800 
L 4125 3475 
L 5875 3475 
L 5825 2900 
Q 5800 2500 5375 2500 
L 5050 2500 
L 4975 2800 
L 5200 2800 
Q 5400 2800 5425 3025 
L 5450 3175 
L 4125 3175 
L 4125 2600 
L 4950 2600 
L 4950 325 
L 4150 325 
Q 4800 0 5875 -100 
L 5700 -575 
Q 4425 -500 3700 50 
L 3900 325 
z
M 2600 3175 
Q 2525 2925 2175 2600 
L 3700 2600 
L 3700 3175 
L 2600 3175 
z
M 4450 2300 
L 1950 2300 
L 1950 1950 
L 4450 1950 
L 4450 2300 
z
M 1950 1300 
L 4450 1300 
L 4450 1650 
L 1950 1650 
L 1950 1300 
z
M 4450 1000 
L 1950 1000 
L 1950 625 
L 4450 625 
L 4450 1000 
z
M 2225 3475 
Q 2250 3600 2275 3800 
L 1450 3800 
L 1375 3475 
L 2225 3475 
z
M 3700 3475 
L 3700 3800 
L 2725 3800 
Q 2700 3600 2675 3475 
L 3700 3475 
z
M 4900 4100 
L 4900 4500 
L 4125 4500 
L 4125 4100 
L 4900 4100 
z
M 3700 4100 
L 3700 4500 
L 2725 4500 
L 2725 4100 
L 3700 4100 
z
" transform="scale(0.015625)"/>
     </defs>
     <use xlink:href="#MS-Gothic-98df"/>
     <use xlink:href="#MS-Gothic-8cbb" x="100"/>
    </g>
   </g>
   <g id="text_2">
    <!-- 交通費 -->
    <g transform="translate(37.99756 148.998501) scale(0.1 -0.1)">
     <defs>
      <path id="MS-Gothic-4ea4" d="M 5600 -475 
Q 4150 -150 3250 625 
Q 2300 -200 650 -450 
L 425 125 
Q 2075 400 2825 1000 
Q 2200 1700 1875 2375 
L 2400 2600 
Q 2775 1850 3200 1425 
Q 3600 1925 3875 2675 
L 4400 2400 
Q 4550 2300 4325 2250 
Q 4000 1525 3625 1050 
Q 4300 475 5825 150 
L 5600 -475 
z
M 3450 5100 
Q 3700 5050 3475 4900 
L 3475 4350 
L 5825 4350 
L 5825 3875 
L 575 3875 
L 575 4350 
L 2900 4350 
L 2900 5100 
L 3450 5100 
z
M 2625 3350 
Q 2700 3300 2500 3250 
Q 1950 2500 950 2075 
L 650 2600 
Q 1575 3000 2150 3725 
L 2625 3350 
z
M 4200 3675 
Q 4800 3025 5700 2600 
L 5300 2075 
Q 4425 2550 3825 3275 
L 4200 3675 
z
" transform="scale(0.015625)"/>
      <path id="MS-Gothic-901a" d="M 2875 -450 
Q 2100 -450 1450 150 
Q 1150 -200 525 -550 
L 325 75 
Q 600 150 1175 525 
L 1175 2150 
L 400 2150 
L 400 2625 
L 1675 2625 
L 1675 550 
Q 2175 100 2975 100 
L 6075 100 
L 5975 -450 
L 2875 -450 
z
M 3225 4400 
Q 3850 4250 4025 4175 
L 4500 4525 
L 2200 4525 
L 2200 5000 
L 5050 5000 
L 5175 5075 
L 5550 4800 
Q 5700 4675 5425 4650 
L 4450 4000 
L 4775 3850 
L 4475 3550 
L 5600 3550 
L 5600 700 
Q 5600 350 5250 350 
L 4700 350 
L 4675 825 
L 5000 825 
Q 5100 825 5100 925 
L 5100 1400 
L 4150 1400 
L 4150 425 
L 3650 425 
L 3650 1400 
L 2750 1400 
L 2750 325 
L 2250 325 
L 2250 3550 
L 4100 3550 
Q 3050 3975 2850 4025 
L 3225 4400 
z
M 4150 3150 
L 4150 2675 
L 5100 2675 
L 5100 3150 
L 4150 3150 
z
M 2750 3150 
L 2750 2675 
L 3650 2675 
L 3650 3150 
L 2750 3150 
z
M 3650 2275 
L 2750 2275 
L 2750 1800 
L 3650 1800 
L 3650 2275 
z
M 5100 2275 
L 4150 2275 
L 4150 1800 
L 5100 1800 
L 5100 2275 
z
M 1025 5050 
Q 1700 4625 1950 4225 
L 1525 3775 
Q 1125 4275 675 4625 
L 1025 5050 
z
" transform="scale(0.015625)"/>
     </defs>
     <use xlink:href="#MS-Gothic-4ea4"/>
     <use xlink:href="#MS-Gothic-901a" x="100"/>
     <use xlink:href="#MS-Gothic-8cbb" x="200"/>
    </g>
   </g>
   <g id="text_3">
    <!-- 趣味 -->
    <g transform="translate(43.668017 201.630635) scale(0.1 -0.1)">
     <defs>
      <path id="MS-Gothic-8da3" d="M 4850 1775 
Q 4450 2675 4350 3850 
L 4125 3850 
L 4125 275 
L 3700 275 
L 3700 1025 
L 2650 675 
Q 2575 500 2525 675 
L 2400 1125 
L 2825 1225 
L 2825 4550 
L 2575 4550 
L 2575 4950 
L 4625 4950 
L 4625 4550 
L 4125 4550 
L 4125 4250 
L 5500 4250 
L 5575 4350 
L 6000 3950 
L 5925 3875 
Q 5775 2600 5375 1775 
Q 5600 1425 6075 1050 
L 5800 525 
Q 5400 850 5125 1325 
Q 4775 750 4400 400 
L 4175 875 
Q 4600 1250 4850 1775 
z
M 5125 2275 
Q 5400 3100 5450 3850 
L 4775 3850 
Q 4850 2875 5125 2275 
z
M 6125 100 
L 6050 -375 
L 3000 -375 
Q 1725 -375 1000 600 
Q 900 -125 575 -600 
L 200 -225 
Q 700 700 700 2325 
L 1200 2250 
Q 1275 2175 1150 2100 
Q 1125 1575 1075 1100 
Q 1200 950 1400 775 
L 1400 2825 
L 400 2825 
L 400 3225 
L 1400 3225 
L 1400 3975 
L 575 3975 
L 575 4375 
L 1400 4375 
L 1400 5175 
L 1800 5175 
Q 2000 5150 1825 5025 
L 1825 4375 
L 2525 4375 
L 2525 3975 
L 1825 3975 
L 1825 3225 
L 2625 3225 
L 2625 2825 
L 1825 2825 
L 1825 1950 
L 2525 1950 
L 2525 1550 
L 1825 1550 
L 1825 425 
Q 2125 100 2875 100 
L 6125 100 
z
M 3700 2150 
L 3250 2150 
L 3250 1325 
L 3700 1450 
L 3700 2150 
z
M 3700 3350 
L 3250 3350 
L 3250 2550 
L 3700 2550 
L 3700 3350 
z
M 3700 4550 
L 3250 4550 
L 3250 3750 
L 3700 3750 
L 3700 4550 
z
" transform="scale(0.015625)"/>
      <path id="MS-Gothic-5473" d="M 1600 300 
Q 2900 1025 3600 2325 
L 2400 2325 
L 2400 2800 
L 3750 2800 
L 3750 3700 
L 2550 3700 
L 2550 4175 
L 3750 4175 
L 3750 5125 
L 4225 5125 
Q 4425 5100 4250 4975 
L 4250 4175 
L 5575 4175 
L 5575 3700 
L 4250 3700 
L 4250 2800 
L 5900 2800 
L 5900 2325 
L 4425 2325 
Q 5000 1225 6125 550 
L 5750 -25 
Q 4725 750 4250 1725 
L 4250 -525 
L 3750 -525 
L 3750 1650 
Q 3100 500 1950 -150 
L 1600 300 
z
M 2175 900 
L 1675 900 
L 1675 1150 
L 975 1150 
L 975 525 
L 475 525 
L 475 4450 
L 2175 4450 
L 2175 900 
z
M 1675 1625 
L 1675 3975 
L 975 3975 
L 975 1625 
L 1675 1625 
z
" transform="scale(0.015625)"/>
     </defs>
     <use xlink:href="#MS-Gothic-8da3"/>
     <use xlink:href="#MS-Gothic-5473" x="100"/>
    </g>
   </g>
   <g id="text_4">
    <!-- 学費 -->
    <g transform="translate(209.315123 304.517709) scale(0.1 -0.1)">
     <defs>
      <path id="MS-Gothic-5b66" d="M 4675 4100 
L 5900 4100 
L 5900 2725 
L 5400 2725 
L 5400 3625 
L 1000 3625 
L 1000 2650 
L 500 2650 
L 500 4100 
L 4125 4100 
L 4650 5200 
L 5175 4950 
Q 5275 4825 5100 4800 
L 4675 4100 
z
M 3150 5175 
Q 3525 4700 3650 4400 
L 3125 4125 
Q 2925 4575 2675 4900 
L 3150 5175 
z
M 2975 2300 
L 3400 2275 
L 4125 2700 
L 1475 2700 
L 1475 3100 
L 4550 3100 
L 4625 3175 
L 5050 2775 
Q 5125 2675 4925 2675 
Q 4175 2200 3475 1900 
L 3475 1650 
L 6075 1650 
L 6075 1175 
L 3475 1175 
L 3475 -100 
Q 3475 -500 3075 -500 
L 2400 -500 
L 2300 50 
L 2875 50 
Q 2975 50 2975 150 
L 2975 1175 
L 375 1175 
L 375 1650 
L 2975 1650 
L 2975 2300 
z
M 1675 4125 
Q 1450 4575 1225 4825 
L 1700 5100 
Q 1975 4800 2200 4400 
L 1675 4125 
z
" transform="scale(0.015625)"/>
     </defs>
     <use xlink:href="#MS-Gothic-5b66"/>
     <use xlink:href="#MS-Gothic-8cbb" x="100"/>
    </g>
   </g>
  </g>
 </g>
</svg>
