<?xml version="1.0" encoding="utf-8" standalone="no"?>
<!DOCTYPE svg PUBLIC "-//W3C//DTD SVG 1.1//EN"
  "http://www.w3.org/Graphics/SVG/1.1/DTD/svg11.dtd">
<svg xmlns:xlink="http://www.w3.org/1999/xlink" width="360pt" height="360pt" viewBox="0 0 360 360" xmlns="http://www.w3.org/2000/svg" version="1.1">
 <metadata>
  <rdf:RDF xmlns:dc="http://purl.org/dc/elements/1.1/" xmlns:cc="http://creativecommons.org/ns#" xmlns:rdf="http://www.w3.org/1999/02/22-rdf-syntax-ns#">
   <cc:Work>
    <dc:type rdf:resource="http://purl.org/dc/dcmitype/StillImage"/>
    <dc:date>2022-12-07T00:56:37.472465</dc:date>
    <dc:format>image/svg+xml</dc:format>
    <dc:creator>
     <cc:Agent>
      <dc:title>Matplotlib v3.6.2, https://matplotlib.org/</dc:title>
     </cc:Agent>
    </dc:creator>
   </cc:Work>
  </rdf:RDF>
 </metadata>
 <defs>
  <style type="text/css">*{stroke-linejoin: round; stroke-linecap: butt}</style>
 </defs>
 <g id="figure_1">
  <g id="patch_1">
   <path d="M 0 360 
L 360 360 
L 360 0 
L 0 0 
L 0 360 
z
" style="fill: none"/>
  </g>
  <g id="axes_1">
   <g id="patch_2">
    <path d="M 295.38 181.8 
C 295.38 167.239372 292.511874 152.820327 286.939763 139.368061 
C 281.367651 125.915795 273.199919 113.691919 262.904 103.396 
C 252.608081 93.100081 240.384205 84.932349 226.931939 79.360237 
C 213.479673 73.788126 199.060628 70.92 184.5 70.92 
C 169.939372 70.92 155.520327 73.788126 142.068061 79.360237 
C 128.615795 84.932349 116.391919 93.100081 106.096 103.396 
C 95.800081 113.691919 87.632349 125.915795 82.060237 139.368061 
C 76.488126 152.820327 73.62 167.239372 73.62 181.8 
C 73.62 196.360628 76.488126 210.779673 82.060237 224.231939 
C 87.632349 237.684205 95.800081 249.908081 106.096 260.204 
C 116.391919 270.499919 128.615795 278.667651 142.068061 284.239763 
C 155.520327 289.811874 169.939372 292.68 184.5 292.68 
C 199.060628 292.68 213.479673 289.811874 226.931939 284.239763 
C 240.384205 278.667651 252.608081 270.499919 262.904 260.204 
C 273.199919 249.908081 281.367651 237.684205 286.939763 224.231939 
C 292.511874 210.779673 295.38 196.360628 295.38 181.8 
M 184.5 181.8 
M 295.38 181.8 
z
" style="fill: #1f77b4"/>
   </g>
   <g id="matplotlib.axis_1"/>
   <g id="matplotlib.axis_2"/>
   <g id="text_1">
    <!-- 食費 -->
    <g transform="translate(42.532 185.139844) scale(0.1 -0.1)">
     <defs>
      <path id="MS-Gothic-98df" d="M 3475 -100 
Q 2225 -325 975 -500 
Q 950 -700 850 -575 
L 700 75 
L 1525 125 
L 1525 3350 
Q 1000 3075 525 2900 
L 325 3425 
Q 2275 4025 2850 5200 
L 3525 5125 
Q 3625 5025 3450 5000 
L 3450 4925 
Q 4325 3950 6075 3525 
L 5775 3000 
Q 5450 3050 4775 3350 
L 4775 1400 
L 5100 1725 
L 5550 1275 
Q 5575 1150 5425 1200 
L 4225 425 
Q 4700 100 5950 -25 
L 5725 -550 
Q 3550 -350 2950 1300 
L 2025 1300 
L 2025 175 
L 3475 350 
L 3475 -100 
z
M 3425 1300 
Q 3525 1025 3875 675 
L 4650 1300 
L 3425 1300 
z
M 4275 1700 
L 4275 2150 
L 2025 2150 
L 2025 1700 
L 4275 1700 
z
M 2025 2550 
L 4275 2550 
L 4275 3000 
L 2025 3000 
L 2025 2550 
z
M 3125 4650 
Q 2575 3925 1625 3400 
L 2925 3400 
L 2925 4050 
L 3400 4050 
Q 3600 4025 3425 3900 
L 3425 3400 
L 4675 3400 
Q 3925 3750 3125 4650 
z
" transform="scale(0.015625)"/>
      <path id="MS-Gothic-8cbb" d="M 3900 325 
L 2450 325 
L 2775 0 
Q 2825 -100 2625 -100 
Q 1675 -575 775 -650 
L 575 -150 
Q 1750 25 2275 325 
L 1450 325 
L 1450 2175 
Q 1050 2000 525 1925 
L 425 2375 
Q 1650 2500 2100 3175 
L 1275 3175 
L 1225 2975 
L 775 3050 
L 1050 4100 
L 2300 4100 
L 2300 4500 
L 750 4500 
L 750 4800 
L 2300 4800 
L 2300 5225 
L 2700 5225 
Q 2900 5200 2725 5075 
L 2725 4800 
L 3700 4800 
L 3700 5225 
L 4100 5225 
Q 4300 5200 4125 5075 
L 4125 4800 
L 5400 4800 
L 5400 3800 
L 4125 3800 
L 4125 3475 
L 5875 3475 
L 5825 2900 
Q 5800 2500 5375 2500 
L 5050 2500 
L 4975 2800 
L 5200 2800 
Q 5400 2800 5425 3025 
L 5450 3175 
L 4125 3175 
L 4125 2600 
L 4950 2600 
L 4950 325 
L 4150 325 
Q 4800 0 5875 -100 
L 5700 -575 
Q 4425 -500 3700 50 
L 3900 325 
z
M 2600 3175 
Q 2525 2925 2175 2600 
L 3700 2600 
L 3700 3175 
L 2600 3175 
z
M 4450 2300 
L 1950 2300 
L 1950 1950 
L 4450 1950 
L 4450 2300 
z
M 1950 1300 
L 4450 1300 
L 4450 1650 
L 1950 1650 
L 1950 1300 
z
M 4450 1000 
L 1950 1000 
L 1950 625 
L 4450 625 
L 4450 1000 
z
M 2225 3475 
Q 2250 3600 2275 3800 
L 1450 3800 
L 1375 3475 
L 2225 3475 
z
M 3700 3475 
L 3700 3800 
L 2725 3800 
Q 2700 3600 2675 3475 
L 3700 3475 
z
M 4900 4100 
L 4900 4500 
L 4125 4500 
L 4125 4100 
L 4900 4100 
z
M 3700 4100 
L 3700 4500 
L 2725 4500 
L 2725 4100 
L 3700 4100 
z
" transform="scale(0.015625)"/>
     </defs>
     <use xlink:href="#MS-Gothic-98df"/>
     <use xlink:href="#MS-Gothic-8cbb" x="100"/>
    </g>
   </g>
  </g>
 </g>
</svg>
